<svg id="Layer_1" xmlns="http://www.w3.org/2000/svg" viewBox="0 0 2040 1020"><style>.st1{fill:none;stroke:#afe6ff;stroke-miterlimit:10}.st3{fill:#afe6ff}.st4{fill:#fff}.st7{fill:#0091c8}.st8{fill:#cd5014}.st9{fill:#fa968c}.st10{fill:#fab9af}.st11{fill:#82be50}.st13{fill:#ff9669}.st14{fill:#373c41}.st16{fill:#0073aa}.st17{fill:#b80b5a}.st20{fill:#ff640a}.st21{fill:#ffc305}.st22{fill:#c34646}.st23{fill:#d25a50}.st24{fill:#783c28}.st26{fill:#ff6196}.st29{fill:#fac855}.st30{fill:#ff82aa}.st32{fill:#c8462d}.st35{fill:#ff8c46}.st38{fill:none;stroke:#82878c;stroke-linecap:round;stroke-miterlimit:10}.st39{fill:#1c9585}.st40{fill:#004875}.st42{fill:#69280f}.st43{fill:#5a2d19}</style><path fill="#41b4e6" d="M0 0h2040v1020H0z"/><path class="st1" d="M1241.7 684h-126.4V339.3l63.2-133.9 63.2 133.9zM1115.3 339.3h126.4"/><path fill="#41b4e6" stroke="#afe6ff" stroke-width="1.085" stroke-miterlimit="10" d="M1866.1 313.5V328"/><path class="st3" d="M1156.5 253h44l-22-47.6z"/><text transform="translate(213.746 684.043)" class="st4" font-size="502.038" font-family="SourceSansPro-Black">DESIGN</text><path class="st7" d="M1931.6 703.8H174.8c-1.2 0-2.2-1-2.2-2.2v-15.4c0-1.2 1-2.2 2.2-2.2h1756.8c1.2 0 2.2 1 2.2 2.2v15.4c0 1.2-1 2.2-2.2 2.2z"/><g><ellipse class="st7" cx="1154.1" cy="767" rx="92.9" ry="9.9"/><path class="st8" d="M1173.3 594.6c-4.5 21.2-23.5 25.9-35.3 23.4-11.8-2.5-6.9-23.6-5-32.7 1.9-9.1 12.5-11.9 24.3-9.4s17.9 9.6 16 18.7z"/><path class="st9" d="M1154.7 633.4l-21 1.8 6.4-34.5 11.4 12.1z"/><path class="st10" d="M1196.2 645.6c6.6 12.1 29.5 71.2 21.5 75.5-8 4.3-43.9-47.6-50.5-59.8s-5.5-25.5 2.5-29.8c8-4.4 19.9 1.9 26.5 14.1zM1107.1 680c-12.8 22.1-32.5 34.7-37.8 31.6-5.6-3.3.4-25.4 12.3-47 12.3-22.4 26-37.7 34.1-33.1 8 4.6 4.2 26.4-8.6 48.5z"/><path class="st11" d="M1183.8 686.4c-7.6-10.6-14.1-20.6-16.6-25.1-6.6-12.1-5.5-25.5 2.5-29.8 8-4.3 19.8 2 26.4 14.1 2.5 4.7 7.5 16.3 12.2 29-7.7 11-24.5 11.8-24.5 11.8zM1081.6 664.5c12.3-22.4 26-37.7 34.1-33.1 7.7 4.4 4.6 24.2-6.7 45.1 0 .1-22-2.8-27.4-12z"/><path class="st9" d="M1115 630.4l59.8-.3c11.9-.1 20.4 11.5 16.7 22.9l-32.4 100.2c-3.9 12-15.5 19.6-28 18.4-13-1.2-23.3-11.7-24.2-24.8l-7.1-99.9c-.7-8.9 6.3-16.4 15.2-16.5z"/><path class="st11" d="M1115 630.4l18.3-.1c-1.8 6.7 1.2 14.9 10.1 16.1 10.4 1.4 15.4-8.4 13.6-16.2l17.8-.1c11.9-.1 20.4 11.5 16.7 22.9l-32.4 100.2c-3.9 12-15.5 19.6-28 18.4-13-1.2-23.3-11.7-24.2-24.8l-7.1-99.9c-.7-8.9 6.3-16.4 15.2-16.5z"/><path class="st10" d="M1101.5 713.2c9.4 4.2 56.2 28.5 53.8 33.8-2.4 5.3-53.2-12-62.4-16.7-16.8-8.6-27.6-17.5-25.2-22.8s24.4 1.5 33.8 5.7z"/><path class="st9" d="M1217.8 758.5c-17 5.2-125.1 30.9-129.3 22.2-1.6-3.4 102.1-50.5 119.1-55.6 17-5.2 33-1.9 35.8 7.4 2.9 9.1-8.6 20.8-25.6 26z"/><path d="M1126.1 760.6c31-14.7 71.5-32.5 81.5-35.5 17-5.2 33-1.9 35.8 7.4 2.8 9.2-8.7 20.9-25.7 26-10.1 3.1-50.2 15.3-83.8 21.4-1.3-7.1-3.2-14.9-7.8-19.3z" fill="#003c63"/><path class="st10" d="M1168.8 606.8c-3.2 15.2-7.8 22.1-15.6 20.4-9.5-2-19.3-15-16.6-27.6 2.7-12.5 9.8-18.6 19.3-16.6s15.6 11.2 12.9 23.8z"/><path class="st13" d="M1137.9 594.7l24.1 5.1c2.5.5 5.1.2 7.3-.7-.7-8.6-6-14.6-13.5-16.2-8.1-1.7-14.5 2.6-17.9 11.8z"/><path class="st8" d="M1171.7 599.5l-36.9-7.9 3.1-14.6c.3-1.6 1.9-2.6 3.5-2.3l36.9 7.9-3.1 14.6c-.3 1.6-1.9 2.6-3.5 2.3z"/><path class="st8" d="M1140.7 602.8l2.9-13.8 6 1.3-1.7 7.8c-.6 3.3-3.9 5.4-7.2 4.7z"/><path class="st10" d="M1143.6 600.6c-.9 4.2-2.9 7.2-6.3 6.5-3.4-.7-4.3-6.9-3.4-11s3.3-4.7 6.7-4c3.3.7 3.9 4.3 3 8.5zM1205 730.2c-9.5 3.2-62.4 17.4-64.1 12.2-1.8-5.2 48.2-27.9 57.7-31.1 9.5-3.2 18.7-1.7 20.5 3.6 1.7 5.2-4.5 12-14.1 15.3z"/><path class="st9" d="M1111.9 768.7s-.3.9-9.6 0c-9.2-.9-10.4-4.7-17.5 4.2-7.2 8.8-24.5 9.6-25 14s69.2-9.1 69.2-9.1l-17.1-9.1z"/><path class="st14" d="M1084.8 772.8c7.2-8.8 8.3-5.1 17.5-4.2-7.9 2.1-12.3 8.8-13.1 16-15.5 2.4-29.7 4.1-29.4 2.1.5-4.3 17.8-5.1 25-13.9z"/><path class="st10" d="M1154.3 731.4s9.1 3.6 9 6.7c-.2 3.1-.8 5.2-5.4 5.2-4.6-.1-10.9-2.3-14.3-4.5-3.5-2.1-7.8-8.1-7.9-9.1-.1-3.5 5.8 1 8.7 3.1 3 2 6.5 4 7.1 2.3.6-1.7-5.4-5.2-5.4-7.4 0-2 8.2 3.7 8.2 3.7z"/><path class="st3" d="M1137.5 750.6l61.9-7.4c2.9-.3 5-2.8 5-5.6v-39.4c0-3.4-3-6-6.3-5.6l-61.9 7.4c-2.9.3-5 2.8-5 5.6V745c-.1 3.4 2.9 6 6.3 5.6z"/><path d="M1159 722.3c0 6.7 4.3 12.2 9.5 12.2 5.3 0 9.5-5.5 9.5-12.2 0-6.7-4.3-12.2-9.5-12.2s-9.5 5.5-9.5 12.2z" fill="#d2f0ff"/><path class="st10" d="M1100 722.5c17.2 4.2 108.7 41.9 109.8 52.5.2 2.3-102.7-8.8-119.9-13-17.2-4.2-28.3-17.9-25.8-28.3 2.6-10.4 18.7-15.4 35.9-11.2z"/><path class="st10" d="M1187.4 759.1s8.4 4.5 17.6 5.4c9.3.9 11.1-2.6 16.4 7.5 5.3 10 22.2 14.2 21.8 18.6-.4 4.4-66.1-22.3-66.1-22.3l10.3-9.2z"/><path class="st14" d="M1203.7 764.2c.5.1.9.2 1.4.2 9.3.9 11.1-2.6 16.4 7.5 5.3 10 22.2 14.2 21.8 18.6-.2 2-13.4-2.3-27.9-7.5.2-7.9-3.8-15.8-11.7-18.8z"/><path class="st16" d="M1064.2 733.7c2.6-10.4 18.6-15.4 35.8-11.2 10 2.4 44.9 16.1 72.7 29.2-1.9 7.3-3.8 18.6-3.3 23.6-30.4-3.1-69.7-11-79.5-13.4-17.2-4.1-28.3-17.8-25.7-28.2z"/></g><g><path class="st17" d="M602.8 477c-.4 12.1 9 22.2 21 22.7 12.1.4 22.2-9 22.7-21 .4-12.1-9-22.2-21-22.7-12.1-.5-22.3 8.9-22.7 21z"/><path class="st10" d="M599.1 481c-6.7 9.2-30.2 51.1-24.8 55 5.4 3.9 37.7-31.7 44.4-40.9s7.7-19.9 2.3-23.8c-5.5-3.9-15.3.4-21.9 9.7z"/><path class="st10" d="M572.9 520.1c-6-4.4-45.5-29.7-47.9-26.4-2.4 3.3 33.1 34.1 39.2 38.4 6 4.4 12.9 5.2 15.3 1.8 2.4-3.3-.5-9.5-6.6-13.8z"/><path class="st10" d="M530.6 490.4s-2.3 7.5-7 5.6-6.7-15.7-4.3-18.4c2.4-2.7 6 6.1 11.3 12.8z"/><path d="M532.5 488.2c.7-1.1.4-2.5-.7-3.2l-22.6-14.1c-1.1-.7-2.5-.4-3.2.7-.7 1.1-.4 2.5.7 3.2l22.6 14.1c1.1.7 2.5.3 3.2-.7z" fill="#965028"/><path class="st10" d="M524.6 477.8c.9 0 1.3 2.5 1.5 5.5.1 1.6.6 3.3 1.8 4.4.8.7 1.2 1.9 1.2 3.2-.1 2.2-1.6 3.9-3.3 3.8-2.3-.1-2.6-4.2-2.6-5.8-.1-2.8.3-11.1 1.4-11.1z"/><path d="M506.2 466.3c2.3 1.2 3.2 4.1 1.9 6.5-1.2 2.3-4.1 3.2-6.5 1.9-2.3-1.2-7.3-6.4-6.1-8.7 4.2 2.3 8.3-.9 10.7.3z" fill="#dcbe82"/><path class="st20" d="M506.2 466.3c2.3 1.2-2.2 9.6-4.5 8.4-2.3-1.2-7.3-6.4-6.1-8.7 4.1 2.3 8.2-.9 10.6.3zM497.4 476.3c0 1.3-1.1 2.3-2.3 2.3-1.3 0-2.3-1.1-2.3-2.3 0-1.3 2.3-4.5 2.3-4.5s2.3 3.2 2.3 4.5z"/><ellipse class="st7" cx="632" cy="780.3" rx="31.2" ry="3.2"/><path class="st9" d="M622.8 740.2s6.8 17.7 9.5 19.5c2.8 1.8 6.2 5.9 3.1 9.3-2.4 2.5-4.8 5.4-6.9 7.2-1.8 1.6-4 2.4-6.4 2.5-4.2.1-10.6.3-11.6.2-1.6-.2.7-4.2 6.6-5 5.9-.8 9.5-14.4 2-24.2l3.7-9.5z"/><path class="st17" d="M636.1 481.8c-.4 12.1 9 22.2 21 22.7 12.1.4 22.2-9 22.7-21 .4-12.1-9-22.2-21-22.7-12.1-.5-22.3 9-22.7 21z"/><path class="st17" d="M629.4 456.9c-.4 9.9 7.3 18.1 17.2 18.5 9.9.4 18.1-7.3 18.5-17.2.4-9.9-7.3-18.1-17.2-18.5-9.8-.4-18.1 7.3-18.5 17.2z"/><path class="st21" d="M609.7 563.2l28.1-3.4 6.8-19.4 21.7-56.6c2.3-5.9-1.9-12.3-8.2-12.5l-41.5-1.5c-7-.3-12.6 5.6-12.2 12.5l5.3 80.9z"/><path class="st21" d="M629.2 484.1l-24.1-.9-8.2 21.4c-2.5 6.7 2.2 13.9 9.4 14.1l9.5.4 13.4-35z"/><path class="st22" d="M630.7 607.2c-11.2 14.4-39.4 64.2-49.8 56.2-10.4-8.1 9.1-81.4 20.2-95.8 11.2-14.4 44.2-24.1 54.6-16.1 10.4 8.1-13.9 41.3-25 55.7z"/><path class="st10" d="M626.1 678.5c1.2 11.3 12.5 99.7 16.1 98.4 3.2-1.1 9-89.5 7.8-100.9-1.2-11.3-7.5-20-14.1-19.3-6.6.8-11 10.5-9.8 21.8z"/><path class="st9" d="M580.6 669.2c4.5 10.5 41.5 91.4 44.7 89.2 2.7-2-18-88.2-22.5-98.6-4.5-10.5-13.1-16.8-19.2-14.2-6.2 2.6-7.5 13.2-3 23.6z"/><path class="st23" d="M637 756.8h8.5c2.2-26.8 5.2-74 4.5-80.8-1.2-11.3-7.5-20-14.1-19.3-6.6.7-11 10.4-9.9 21.7.7 6.7 7 52.5 11 78.4z"/><path class="st22" d="M626.7 749.7c-4.8-25.4-20.6-82-24-89.9-4.5-10.5-13.1-16.8-19.2-14.2-6.1 2.6-7.4 13.2-3 23.7 3.2 7.5 27.1 58.7 39.3 81.9l6.9-1.5z"/><path class="st23" d="M625.1 596.7c-.7 18.2-3.5 81.4 9.7 81.9 13.1.5 37.5-67.7 38.4-93.4 1.2-34.6-18.4-46.9-31.6-47.4-13.2-.3-15.9 40.7-16.5 58.9z"/><path class="st10" d="M645.5 756.8s0 10.6 1.4 16.4c1.4 5.8.1 8.2-5.9 8.4-6 .2-21.1 1.9-22.8.1-1.7-1.8 5.4-4.3 10.3-6.2 5.8-2.3 9.5-9.5 9.5-14.4l7.5-4.3z"/><path class="st24" d="M632.7 760c-1.8 6-6.2 11.1-13 12.9-.7.6-1.6 1-2.4 1.2-5.9.8-8.2 4.8-6.6 5 1.1.1 7.5 0 11.6-.2 2.4-.1 4.6-1 6.4-2.5 2.1-1.8 4.5-4.7 6.9-7.2 2.9-3.4-.2-7.3-2.9-9.2z"/><path class="st24" d="M646.9 773.2c-3 2.2-6.9 3.6-11.7 3.6-2.6 0-4.9-.4-7-1.1-4.9 1.9-11.6 4.3-10 6.1 1.7 1.8 16.8.1 22.8-.1s7.3-2.6 5.9-8.5z"/><path class="st9" d="M644.8 490c-2.3 11.2-6.6 59-.1 60.4 6.5 1.3 21.4-44.4 23.7-55.5 2.3-11.2-1.1-21.3-7.7-22.6-6.4-1.5-13.6 6.5-15.9 17.7z"/><path class="st9" d="M638 539.1c-7.4-.2-54.3.8-54.4 4.9-.1 4.1 46.5 9.7 54 9.9 7.4.2 13.6-2.9 13.7-7 .1-4.1-5.9-7.6-13.3-7.8z"/><path class="st9" d="M579 540.2s7.2-.6 8.1 1.6c.9 2.1 1.1 3.8-1.9 5.2-3.1 1.4-8 2-11 1.7-3-.3-7.8-2.9-8.2-3.5-1.2-2.3 4.2-1.2 6.8-.8 2.6.4 5.6.6 5.5-.7-.2-1.3-5.3-1.7-6-3.1-.6-1.6 6.7-.4 6.7-.4z"/><path d="M587.7 541.2c0 3.3-8.7 6-19.3 6-10.7 0-19.3-2.7-19.3-6s8.7-6 19.3-6c10.7 0 19.3 2.7 19.3 6z" fill="#fffad7"/><path class="st20" d="M560.7 541.1c0 .8-1.6 1.4-3.7 1.4-2 0-3.7-.6-3.7-1.4 0-.8 1.6-1.4 3.7-1.4s3.7.6 3.7 1.4z"/><path class="st26" d="M569.5 543.3c0 .8-1.6 1.4-3.7 1.4s-3.7-.6-3.7-1.4c0-.8 1.6-1.4 3.7-1.4s3.7.6 3.7 1.4z"/><path d="M570.3 537.9c0 .8-1.6 1.4-3.7 1.4-2 0-3.7-.6-3.7-1.4 0-.8 1.6-1.4 3.7-1.4s3.7.7 3.7 1.4z" fill="#6e64c3"/><path class="st9" d="M575.5 542.5s5.4.3 6.1-1.3c.6-1.7-6.3-3.1-9-3.3-2.7-.2-4.6 0-3 1.1 1.7 1.1 5.9 3.5 5.9 3.5z"/><path fill="#afe6ff" stroke="#afe6ff" stroke-miterlimit="10" d="M513.3 608.3h-16.9l-50.8-206.5 16-3.9z"/><path class="st1" d="M470 501.2v279.5h83.4M496.4 608.3h46.3M445.6 616.8h11.7v31.4h-11.7zM457.2 632.5H470"/><path class="st17" d="M616.3 417.5c3.2-.6 6.1.3 8.2 2.1 3.3 2.9 7.3 4.9 11.8 5.1l2.3.1c3.4.1 6.4 2.2 7.8 5.4l4.5 10.7-30.3-1.1.1-3.7c-.9.2-1.8.4-2.8.3-6-.2-10.5-6-8.8-12.2.9-3.3 3.8-6 7.2-6.7z"/><path class="st9" d="M627.5 490.9c6.2 2.3 17.3-20.1 17.3-20.1l-7.7-16.5-8.9 1.5-.5 14.4s-5 18.9-.2 20.7z"/><path class="st17" d="M608.8 436.4c-.2 5.3 3.9 9.7 9.2 9.9 5.3.2 9.7-3.9 9.9-9.2.2-5.3-3.9-9.7-9.2-9.9-5.3-.2-9.7 3.9-9.9 9.2z"/><path class="st17" d="M613.2 450.6c-.2 5.3 3.9 9.7 9.2 9.9 5.3.2 9.7-3.9 9.9-9.2.2-5.3-3.9-9.7-9.2-9.9-5.3-.2-9.7 3.9-9.9 9.2z"/><path class="st17" d="M617.7 438c-.6 15.7 12.4 19.7 21.2 20 8.8.3 8.6-12.7 8.9-19.4.3-6.7-6.7-10.6-15.5-10.9-8.8-.3-14.4 3.6-14.6 10.3z"/><path class="st10" d="M616.8 442.9c-.1 2-.8 4.5-.5 6.8 1.1 8.5 7.5 17.9 11 17.9 2.5 0 10.7-5.2 13.6-11.7 1.1-2.5 1.8-5.1 1.9-7.7.3-9.3-3.6-14.9-10.6-15.1-7.2-.4-15.1.5-15.4 9.8z"/><path class="st13" d="M642.6 444.4l-17.9-.7c-1.9-.1-5.8-1.7-7-5.8.2-6.7 4.1-6.7 14.3-5 6.1 1 9.9 4.4 10.6 11.5z"/><path class="st17" d="M618 441.8l27.4 1 .4-10.8c0-1.2-.9-2.2-2.1-2.2l-27.4-1-.4 10.8c-.1 1.1.9 2.1 2.1 2.2z"/><path class="st17" d="M639.2 449.6l.4-10.3-4.5-.2-.2 5.8c-.1 2.5 1.8 4.6 4.3 4.7z"/><path class="st10" d="M637.5 447.5c-.1 3.1.8 5.6 3.3 5.7 2.5.1 3.7-3.4 3.8-6.5.1-3.1-.9-4.6-3.4-4.6-2.5-.1-3.5 2.4-3.7 5.4z"/></g><g><path class="st29" d="M1832.9 550.1c0 10.5-8.5 19.1-19.1 19.1-10.5 0-19.1-8.5-19.1-19.1 0-10.5 8.5-19.1 19.1-19.1 10.6.1 19.1 8.6 19.1 19.1z"/><path class="st29" d="M1799.8 560.9c0 13.7-11.1 24.8-24.8 24.8-13.7 0-24.8-11.1-24.8-24.8s11.1-24.8 24.8-24.8c13.7 0 24.8 11.1 24.8 24.8z"/><path class="st10" d="M1696.3 611.2s5.6 7.8 3.8 10.3c-1.8 2.5-3.5 3.8-7.2 1.3s-7.6-7.7-9.4-11.3c-1.7-3.6-2.1-10.8-1.6-11.6 1.7-2.9 4.2 3.9 5.5 7.2 1.3 3.3 3.2 6.8 4.6 5.7 1.4-1.1-1.6-7.1-.5-8.9 1.2-1.8 4.8 7.3 4.8 7.3z"/><path class="st10" d="M1744.7 620.1c-8.3-.9-53.1-3.2-53.6 1.4s43.5 14.3 51.8 15.2c8.3.9 15.4-2.1 15.9-6.7s-5.8-9-14.1-9.9z"/><path class="st30" d="M1744.7 620.1c-5.5-.6-30.2-2-46.6-1.5 1.2 2.9 1.8 9.1 1.6 12.2 15.8 4.2 38 5.4 43.2 5.9 8.3.9 15.4-2.1 15.9-6.7s-5.8-9-14.1-9.9z"/><path class="st10" d="M1639.1 651.7c-10.9 4.4-95.4 40.8-93.2 44.2 1.9 3 91-15.5 101.9-19.9 10.9-4.4 17.8-13.4 15.4-20.1-2.4-6.7-13.2-8.6-24.1-4.2z"/><path class="st30" d="M1756.5 579.6c-4.7 9.8-13 56.1-6.8 59.1s24.6-38.5 29.3-48.3c4.7-9.8 3.4-20.1-2.8-23.1-6.2-3-15 2.5-19.7 12.3z"/><path class="st29" d="M1840.4 564.9c-5.2-8.6-25.3-16-25.3-16l-9.4-27.4c-1.6-3.5-5.1-5.7-8.9-5.7h-1.6c-5.1 0-10.3-1.4-14.1-4.8-2.5-2.2-6-3.3-9.7-2.4-3.8.9-6.9 3.9-7.8 7.8-1.7 7 3.6 13.3 10.4 13.3 1.1 0 2.1-.2 3.1-.5v4.2h23.8c-6.4 2.4-11.4 8-12.8 14.8-1.8 9.4 2.9 17.7 10.3 21.7-2.1 4.6-2.8 9.9-1.6 15.5 2.2 10.1 10.9 17.8 21.2 19 14.8 1.6 27.3-9.9 27.3-24.4.2-5.8-2.2-10.7-4.9-15.1z"/><path d="M1730.7 634.2c-14.6 1-91.2 8.6-90.1 23.3 1 14.7 83.8 30.7 104.4 29.3 27.8-2 35.5-25.1 34.5-39.9-1-14.7-34.1-13.7-48.8-12.7z" fill="#5a325a"/><path class="st10" d="M1566.5 684.9s-14.3 3.6-20.4 3.5c-6.1-.1-27.6-7.9-25.7-.6 0 0 16.7 12.4 21.9 14.6 6.5 2.8 9.7-6.1 21.7-8.7l2.5-8.8z"/><path class="st32" d="M1534.7 686.2c-7.6-1.7-15.5-3-14.3 1.6 0 0 16.7 12.4 21.9 14.6 4.3 1.8 7.2-1.4 12.1-4.6-7.7.6-15.5-2.8-19.7-11.6z"/><path class="st26" d="M1820.7 567.1h-46.6c-7.8 0-12.8 17.4-12.8 17.4l-7.6 22.6c-2.6 7.6 3.1 15.5 11.1 15.5h.5l5.1 49.7 31.3-5 6.8-22.1 22-64.4c2.2-6.7-2.8-13.7-9.8-13.7z"/><path class="st30" d="M1802.7 580.3c-7.1 10.6-31.8 58.6-25.6 62.7 6.2 4.1 41-37.1 48.1-47.8 7.1-10.6 7.8-22.6 1.6-26.8-6.3-4-17 1.2-24.1 11.9z"/><path class="st9" d="M1669.6 656.2c-11.6 5.4-97.3 41.6-93.9 45.6 2.6 3.1 14.3-2.4 23.9-3.8 25.9-3.8 73.1-13.4 81.5-17.3 11.6-5.4 18.4-15.3 15.2-22.1-3.2-6.8-15.2-7.8-26.7-2.4z"/><path d="M1750.6 649.8c-17.2-1.2-76.8-5.9-77.8 8.8-1 14.7 62.3 43.7 86.5 45.4 32.6 2.3 45.1-19.5 46.1-34.2s-37.6-18.8-54.8-20z" fill="#823264"/><path class="st9" d="M1592 691.6s-14.4 3.1-20.5 2.8c-6.1-.3-27.3-9-25.7-1.5 0 0 16.2 13 21.3 15.4 6.4 3 10-5.7 22-7.9l2.9-8.8z"/><path class="st32" d="M1560.1 691.8c-7.5-1.9-15.3-3.5-14.4 1.1 0 0 16.2 13 21.3 15.4 4.2 2 7.2-1.2 12.3-4.1-7.6.2-15.3-3.5-19.2-12.4z"/><path d="M1747.6 650.1l-46.9-2.9-15.3-48.6c4.3-1.4 9 1 10.3 5.4l11.1 35.3 33.1 2c4.5.4 8 4.3 7.7 8.8z" fill="#82878c"/><path class="st10" d="M1769.6 628.9c-8.3.8-60.3 8.9-59.9 13.5.5 4.6 53.2 4 61.5 3.1 8.3-.8 14.7-5.2 14.2-9.8-.4-4.6-7.5-7.7-15.8-6.8z"/><path class="st30" d="M1769.6 628.9c-5.5.6-30 4.2-45.9 8 1.8 2.6 3.7 8.5 4.1 11.6 16.3.9 38.3-2.5 43.5-3 8.3-.8 14.7-5.2 14.2-9.8-.5-4.6-7.6-7.7-15.9-6.8z"/><path class="st10" d="M1709.2 633.2s8.7 4 8.3 7.1c-.4 3.1-1.2 5.1-5.6 4.7-4.5-.3-10.5-3-13.7-5.2-3.3-2.3-7.1-8.4-7.1-9.4.1-3.4 5.6 1.4 8.3 3.5 2.8 2.2 6.1 4.4 6.8 2.7.7-1.6-5-5.4-4.8-7.5.2-2.1 7.8 4.1 7.8 4.1z"/><path class="st9" d="M1785.7 586.6c6.4 2.8 20-19.5 20-19.5l-9.3-18.2-9.9 2v16.2s-5.2 17.5-.8 19.5z"/><path class="st29" d="M1763.9 530c0 5.9 4.8 10.7 10.7 10.7 5.9 0 10.7-4.8 10.7-10.7s-4.8-10.7-10.7-10.7c-5.9 0-10.7 4.8-10.7 10.7z"/><path class="st29" d="M1774 531.4c0 17.6 14.7 21.6 24.6 21.6 9.9 0 9.2-14.6 9.2-22.2s-7.9-11.6-17.8-11.6c-9.9.1-16 4.7-16 12.2z"/><path class="st10" d="M1773 536.9c0 2.5.6 5.2 1 8.1 1.3 9.3 8.2 19.1 11.9 19.1 2.2 0 12-6.1 15-13.1 1.3-3.1 1.5-6.1 1.5-9.3 0-10.5-4.6-16.5-12.6-16.5-7.9 0-16.8 1.3-16.8 11.7z"/><path class="st13" d="M1802.2 537.6H1782c-5.2-.5-7.3-4.1-8.1-5.9 0-7.5 4.3-7.9 15.9-6.5 6.9.8 11.3 4.5 12.4 12.4z"/><path class="st29" d="M1774.4 535.7h30.8v-12.2c0-1.3-1.1-2.4-2.4-2.4H1772v12.2c0 1.3 1.1 2.4 2.4 2.4z"/><path class="st29" d="M1798.6 543.5V532h-5v6.5c-.1 2.8 2.2 5 5 5z"/><path class="st10" d="M1796.7 541.3c0 3.5 1.1 6.3 3.9 6.3s4-4 4-7.5-1.2-5.1-4-5.1c-2.9 0-3.9 2.8-3.9 6.3z"/></g><g><path class="st35" d="M249.7 357.8h30.9V485h-30.9zM280.6 357.8h30.9v82.5h-30.9z"/><path d="M228.2 632c0 9.6-7.8 17.3-17.3 17.3s-17.3-7.8-17.3-17.3c0-9.6 7.8-17.3 17.3-17.3s17.3 7.7 17.3 17.3z" fill="none" stroke="#d2d2d7" stroke-width=".5" stroke-miterlimit="10"/><path fill="#a0a0a5" d="M192.5 634.1h36.8v51.5h-36.8z"/><path class="st38" d="M192.5 634.1h36.8M192.5 658.9h36.8M192.5 683.6h36.8"/><path class="st35" d="M220.4 665.2c-2.1 0-3.8-1.7-3.8-3.8V632h7.7v29.4c-.1 2.1-1.8 3.8-3.9 3.8z"/><path class="st10" d="M210.9 607s5.3 8.1 3.3 9.8c-2.1 1.8-8.5 3-10.3 2.5-1.8-.5-3.6-11.8-1.5-12.4s8.5.1 8.5.1z"/><ellipse class="st7" cx="154" cy="785.4" rx="69.8" ry="8.6"/><path class="st10" d="M218.4 561.2c-.4 8.7-5.8 55.9-10.5 55.7-4.8-.2-7.2-47.8-6.8-56.5.4-8.7 4.6-15.6 9.4-15.4 4.8.2 8.3 7.4 7.9 16.2z"/><path class="st10" d="M206.2 482.8c3.5 10.4 15.4 75.1 8.1 77.5-7.3 2.5-30.9-58.3-34.5-68.6-3.5-10.4-.4-20.8 6.8-23.2 7.3-2.5 16.1 3.9 19.6 14.3z"/><path class="st39" d="M211.2 504.9c-1.7-9.7-3.8-18.4-5-22.1-3.5-10.4-12.3-16.8-19.5-14.3-7.3 2.5-10.3 12.9-6.8 23.2 1.3 4 5.3 13.1 10.1 22.7-.1 0 12.4-.4 21.2-9.5z"/><path class="st9" d="M178.6 753.3l.1 20.1-3.5 11.4c-.2.8.3 1.6 1.2 1.6h7.9v-2.5l3.9 2.5s20.5 1.1 21.2 0c2.6-4.3-9.3-5.9-18.1-9.3-8.7-3.4-2.7-36.6-2.7-36.6l-10 12.8z"/><path class="st9" d="M199.4 678.5c-1.5 10.6-15.1 92.9-18.5 91.6-2.9-1.1-5.3-84.1-3.8-94.7 1.5-10.6 7.7-18.4 13.9-17.6 6.1.9 9.9 10.2 8.4 20.7z"/><path class="st40" d="M188.2 757.5c4.8-24.4 10.4-72.7 11.2-79 1.5-10.6-2.3-19.8-8.5-20.7-6.2-.9-12.4 7-13.9 17.6-.9 6.5-1.7 56.7-.5 82.1h11.7z"/><path class="st10" d="M120.5 738.6l-8.4 22.7s-3.8 2.4-5.4 4.7c-.9 1.3-2.1 3.1-3 4.3-.6.9-.5 2.1.2 2.8l3.9 3.9c.8.7 2 .7 2.7 0l1-1 2.2 5.2c.7 1.8 2.4 3.1 4.3 3.3 4.9.7 14.1 1.7 14.4.5 1-3.7-12.6-8.6-12.6-8.6l-1.4-11.8 6.1-14.6-4-11.4z"/><path class="st10" d="M159.7 678.3c-4.3 9.8-40 85.2-42.9 83-2.5-1.9 18-82.4 22.3-92.1 4.3-9.8 12.4-15.6 18.1-13.1s6.8 12.4 2.5 22.2z"/><path class="st16" d="M157.2 656.1c-5.7-2.5-13.8 3.3-18.1 13.1-2.8 6.3-18.8 54.6-24.5 79.7l10.6 3.4c11.4-22.3 31.9-68 34.6-74 4.2-9.8 3.1-19.7-2.6-22.2z"/><path class="st40" d="M207.8 580.4c.3 15.4-4.9 113.1-15.8 113.4-10.8.2-23.1-97.1-23.5-112.5-.3-15.4 8.1-28.1 19-28.3 10.9-.3 19.9 12 20.3 27.4z"/><path class="st16" d="M178.7 577.3c.3 15.4-11.9 103.8-22.8 104-10.8.2-18.1-88-18.4-103.4-.3-15.4 10.1-27.8 20.9-28.1 10.9-.2 19.9 12.1 20.3 27.5z"/><path d="M149.1 471.7l25.2-3.5c20.6-2.8 38 15.3 34.2 35.8l-11.6 63.3c-2.4 13.3-15.2 22.2-28.5 19.9l-30.7-5.3.8-30.4-6.4-57.9c-1.3-10.7 6.3-20.4 17-21.9z" fill="#007d72"/><path class="st9" d="M178.3 470.9s0 7.1-4.4 7.1c-10.6 0-13.4-7.8-13.4-7.8l3.4-18.6 11.5 1.4 2.9 17.9z"/><path class="st42" d="M189.5 429.8c0 18.8-15.2 26.3-25.7 26.3s-10.2-18.8-10.2-26.9c0-8.1 8.4-12.4 18.9-12.4 10.5 0 17 4.9 17 13z"/><path class="st10" d="M187.9 441c0 13.5-2.6 20.2-9.6 20.2-8.5 0-19.1-9.3-19.1-20.4 0-11.1 4.9-17.6 13.4-17.6 8.4-.1 15.3 6.6 15.3 17.8z"/><path class="st13" d="M159.5 436.3h21.4c2.3 0 4.3-.7 6.1-1.9-2.1-7.2-7.8-11.3-14.4-11.3-7.3 0-12 4.8-13.1 13.2z"/><path class="st42" d="M189 434.3h-32.7v-13c0-1.4 1.2-2.6 2.6-2.6h32.8v12.9c-.1 1.5-1.3 2.7-2.7 2.7z"/><path class="st42" d="M163.3 442.7v-12.3h5.4v6.9c0 3-2.4 5.4-5.4 5.4z"/><path class="st10" d="M165.3 440.3c0 3.7-1.2 6.7-4.2 6.7s-4.9-5.1-4.9-8.8c0-3.7 1.9-4.6 4.9-4.6 3.1 0 4.2 3 4.2 6.7z"/><path class="st9" d="M176.7 494.7c22.5-1.7 56.1-14.7 55.7-20.1-.4-5.6-36.4-6.8-58.2-5.7-22.5 1.2-40 6.1-39.4 14.2.7 8.1 19.5 13.3 41.9 11.6z"/><path class="st39" d="M169.8 495c-19.3.3-34.3-4.6-34.9-11.9-.6-8.1 16.8-13 39.4-14.2 2 0-4.5 26.1-4.5 26.1z"/><path class="st9" d="M233.2 455.5c6.9-5.9 39.5-29.7 43.4-25.2 3.8 4.5-24.1 35.1-31.3 40.5-13.4 10-24.9 14.8-28.7 10.3-4-4.5 9.6-19.8 16.6-25.6z"/><path class="st4" d="M191.4 777c-2.7-1.1-4-5-4.5-9.9h-8.2v6.2l-3.5 11.4c-.2.8.3 1.6 1.2 1.6h7.9v-2.5l3.9 2.5s20.5 1.1 21.2 0c2.7-4.3-9.3-5.9-18-9.3zM119.9 776.3l-1.4-11.8 2.1-5.1c-2.7-.2-5-.9-6.9-2.1l-1.5 4.1s-3.8 2.4-5.4 4.7c-.9 1.3-2.1 3.1-3 4.3-.6.9-.5 2.1.2 2.8l3.9 3.9c.8.7 2 .7 2.7 0l1-1 2.2 5.2c.7 1.8 2.4 3.1 4.3 3.3 4.9.7 14.1 1.7 14.4.5.9-3.9-12.6-8.8-12.6-8.8z"/><path class="st43" d="M191.4 777c-1.3.3-2.6.5-4.1.5-3.7 0-6.7-1.1-9.1-2.8l-3.1 10c-.2.8.3 1.6 1.2 1.6h7.9v-2.5l3.9 2.5s20.5 1.1 21.2 0c2.8-4.3-9.2-5.9-17.9-9.3zM119.9 776.3l-.5-4.3c-4.5-1.7-7.4-5.4-8.6-9.7-1.2.9-3 2.3-4 3.7-.9 1.3-2.1 3.1-3 4.3-.6.9-.5 2.1.2 2.8l3.9 3.9c.8.7 2 .7 2.7 0l1-1 2.2 5.2c.7 1.8 2.4 3.1 4.3 3.3 4.9.7 14.1 1.7 14.4.5.9-3.8-12.6-8.7-12.6-8.7z"/><g><path d="M278.3 368.7l45.4 30.4c2.5 1.7 3.2 5.1 1.5 7.7l-2.6 3.9c-1.7 2.5-5.1 3.2-7.7 1.5l-16.1-10.8c-2.4-1.6-5.6-1-7.2 1.4L280 420.2" fill="none" stroke="#fff" stroke-linecap="round" stroke-miterlimit="10"/><path transform="rotate(33.798 303.29 385.498)" class="st20" d="M277.5 375.8h51.6V395h-51.6z"/><path transform="rotate(33.798 299.278 391.489)" class="st8" d="M273.5 389h51.6v4.8h-51.6z"/><path fill="none" stroke="#965028" stroke-width="2" stroke-miterlimit="10" d="M288 408.3l-11.3 16.8"/></g><path class="st9" d="M283.4 417.4c-1.9 1-8.5 8.1-8.5 8.1-2.5 1.5-4.9 3-4.9 5.1 0 4 1.8 4.6 4.6 4.6 2.7.1 10.4-8.3 12.3-10.1 2.6-2.4.7-6.2.3-8.1.7-.6-1.8-.6-3.8.4zM278.3 415.1s-1.5-.1-2.7 0c-1.2.1-.8 5.1-.8 5.1l3.5-5.1z"/></g></svg>