<?xml version="1.0" encoding="utf-8"?>
<!-- Generator: Adobe Illustrator 23.0.3, SVG Export Plug-In . SVG Version: 6.00 Build 0)  -->
<svg version="1.1" id="Layer_1" xmlns="http://www.w3.org/2000/svg" xmlns:xlink="http://www.w3.org/1999/xlink" x="0px" y="0px"
	 viewBox="0 0 2040 1020" style="enable-background:new 0 0 2040 1020;" xml:space="preserve">
<style type="text/css">
	.st0{fill:#FFFFFF;}
	.st1{enable-background:new    ;}
	.st2{fill:#7C7C7C;}
	.st3{fill:#FFA000;}
	.st4{fill:#F57F17;}
	.st5{fill:#FFCA28;}
</style>
<path class="st0" d="M0,0h2040v1020H0V0z"/>
<g class="st1">
	<path class="st2" d="M880.8,460.6H968v21.6h-64.6v41h58.2v21.2h-58.2v59.4h-22.6V460.6z"/>
	<path class="st2" d="M996.4,488.9c-4.3,0-7.8-1.5-10.7-4.4c-2.9-2.9-4.3-6.5-4.3-10.6c0-4.1,1.4-7.7,4.3-10.6
		c2.9-2.9,6.4-4.4,10.7-4.4c4.1,0,7.6,1.5,10.5,4.4c2.9,2.9,4.3,6.5,4.3,10.6c0,4.1-1.4,7.7-4.3,10.6
		C1004,487.5,1000.5,488.9,996.4,488.9z M985.2,603.6v-97.9h22.2v97.9H985.2z"/>
	<path class="st2" d="M1031.3,505.7h21v14.8h1.2c1.2-2.5,2.8-4.9,4.9-7.1c2.1-2.2,4.4-4.1,7-5.6c2.6-1.5,5.3-2.8,8.2-3.8
		c2.9-1,5.6-1.5,8.3-1.5c3.2,0,5.9,0.3,8.2,0.9c2.3,0.6,4.3,1.4,6.2,2.5l-6.4,20.2c-1.5-0.7-3.1-1.2-4.9-1.5c-1.8-0.3-4-0.5-6.5-0.5
		c-3.6,0-6.9,0.7-9.9,2.2c-3,1.5-5.6,3.5-7.9,6c-2.3,2.5-4,5.6-5.3,9c-1.3,3.5-1.9,7.2-1.9,11v51.2h-22.2V505.7z"/>
	<path class="st2" d="M1193,580.3c-4.1,7.6-10,13.9-17.6,19c-7.6,5.1-16.9,7.6-28,7.6c-7.3,0-14.1-1.3-20.3-3.9
		c-6.2-2.6-11.6-6.2-16.1-10.9c-4.5-4.7-8.1-10.2-10.6-16.5c-2.5-6.3-3.8-13.3-3.8-20.9c0-7.1,1.2-13.8,3.6-20.1
		c2.4-6.3,5.8-11.9,10.1-16.6c4.3-4.7,9.6-8.5,15.7-11.3c6.1-2.8,12.9-4.2,20.4-4.2c7.6,0,14.4,1.3,20.3,3.8
		c5.9,2.5,11,6.1,15.1,10.6c4.1,4.5,7.3,10,9.5,16.4c2.2,6.4,3.3,13.4,3.3,21c0,0.7,0,1.3,0,1.8c-0.1,0.7-0.2,1.3-0.2,1.8
		c-0.1,0.5-0.2,1.1-0.2,1.6h-75.3c0.4,4.7,1.5,8.7,3.4,12.2c1.9,3.5,4.2,6.3,6.9,8.6c2.7,2.3,5.8,3.9,9.1,5c3.3,1.1,6.6,1.6,9.8,1.6
		c6.4,0,11.7-1.5,15.8-4.6c4.1-3.1,7.5-6.9,10.2-11.4L1193,580.3z M1172.4,542.5c-0.3-2-0.9-4.2-1.9-6.7c-1-2.5-2.5-4.7-4.6-6.8
		c-2.1-2.1-4.7-3.8-8-5.3c-3.3-1.5-7.2-2.2-11.9-2.2c-6.4,0-11.9,1.9-16.5,5.7s-7.7,8.9-9.3,15.3H1172.4z"/>
	<path class="st2" d="M1211.4,460.6h22.2v44.2l-1.2,13.6h1.2c2.7-4.3,6.7-8,12.2-11.1c5.5-3.1,12-4.7,19.6-4.7
		c6.3,0,12.2,1.3,17.9,3.9c5.7,2.6,10.6,6.2,14.9,10.9c4.3,4.7,7.7,10.2,10.2,16.5c2.5,6.3,3.8,13.3,3.8,20.9
		c0,7.6-1.3,14.6-3.8,20.9c-2.5,6.3-5.9,11.8-10.2,16.5c-4.3,4.7-9.2,8.3-14.9,10.9c-5.7,2.6-11.6,3.9-17.9,3.9
		c-7.6,0-14.1-1.6-19.6-4.7c-5.5-3.1-9.5-6.8-12.2-11.1h-1.2v12.6h-21V460.6z M1261.2,586.3c3.7,0,7.4-0.7,10.9-2.2
		c3.5-1.5,6.6-3.6,9.2-6.3c2.6-2.7,4.7-6,6.3-9.9c1.6-3.9,2.4-8.3,2.4-13.2c0-4.9-0.8-9.3-2.4-13.2c-1.6-3.9-3.7-7.2-6.3-9.9
		c-2.6-2.7-5.7-4.8-9.2-6.3c-3.5-1.5-7.2-2.2-10.9-2.2c-3.9,0-7.5,0.7-11,2.2c-3.5,1.5-6.5,3.5-9.1,6.2c-2.6,2.7-4.7,6-6.3,9.9
		c-1.6,3.9-2.4,8.4-2.4,13.3c0,4.9,0.8,9.4,2.4,13.3c1.6,3.9,3.7,7.2,6.3,9.9c2.6,2.7,5.6,4.7,9.1,6.2
		C1253.6,585.5,1257.3,586.3,1261.2,586.3z"/>
	<path class="st2" d="M1390.9,591.7h-1.2c-2.9,3.9-6.7,7.4-11.4,10.5c-4.7,3.1-10.6,4.7-17.8,4.7c-5.2,0-10.1-0.8-14.6-2.5
		c-4.5-1.7-8.5-4-11.8-7c-3.3-3-6-6.5-7.9-10.6c-1.9-4.1-2.9-8.6-2.9-13.5c0-5.2,1-9.9,3.1-14c2.1-4.1,4.9-7.6,8.6-10.4
		c3.7-2.8,8-5,13.1-6.5c5.1-1.5,10.5-2.3,16.4-2.3c6.5,0,12,0.6,16.4,1.9c4.4,1.3,7.7,2.4,10,3.5v-3.8c0-2.9-0.6-5.7-1.9-8.2
		c-1.3-2.5-3-4.7-5.2-6.5s-4.7-3.2-7.5-4.2c-2.8-1-5.7-1.5-8.8-1.5c-4.9,0-9.4,1-13.3,2.9c-3.9,1.9-7.4,5-10.5,9.3l-17.6-11.6
		c4.7-6.4,10.5-11.2,17.4-14.5c6.9-3.3,14.8-4.9,23.6-4.9c14.5,0,25.7,3.6,33.7,10.8c7.9,7.2,11.9,17.5,11.9,30.8v59.6h-21.8V591.7z
		 M1390.9,562.9c-2.9-1.7-6.2-3.1-9.8-4.2c-3.6-1.1-7.7-1.6-12.4-1.6c-6.9,0-12.5,1.6-16.6,4.8c-4.1,3.2-6.2,7.1-6.2,11.6
		c0,2.4,0.5,4.5,1.6,6.3c1.1,1.8,2.4,3.4,4.1,4.7c1.7,1.3,3.6,2.3,5.8,3c2.2,0.7,4.4,1,6.7,1c3.6,0,7-0.7,10.3-2.1
		c3.3-1.4,6.1-3.3,8.5-5.6c2.4-2.3,4.3-5,5.8-8.1C1390.1,569.6,1390.9,566.3,1390.9,562.9z"/>
	<path class="st2" d="M1469.6,606.8c-6,0-11.4-0.8-16.2-2.4c-4.8-1.6-9-3.7-12.6-6.3c-3.6-2.6-6.6-5.6-9.1-8.9
		c-2.5-3.3-4.4-6.8-5.7-10.4l20-8.4c2.3,5.7,5.5,10,9.8,12.7c4.3,2.7,8.9,4.1,13.8,4.1c5.6,0,10-1.1,13.2-3.4
		c3.2-2.3,4.8-4.8,4.8-7.6s-1.2-5.2-3.6-7.3c-2.4-2.1-6.9-3.9-13.6-5.5l-14-3.4c-3.1-0.7-6.2-1.7-9.3-3.1c-3.1-1.4-6-3.2-8.7-5.4
		c-2.7-2.2-4.8-4.9-6.5-8c-1.7-3.1-2.5-6.8-2.5-11.1c0-4.8,1-9.1,3.1-12.8c2.1-3.7,4.9-6.9,8.5-9.4c3.6-2.5,7.8-4.5,12.5-5.8
		c4.7-1.3,9.8-2,15.1-2c4.4,0,8.6,0.5,12.7,1.4c4.1,0.9,7.8,2.3,11.3,4.2c3.5,1.9,6.6,4.2,9.3,7.1c2.7,2.9,4.9,6.2,6.5,10.1
		l-19.6,8.2c-1.9-4.3-4.8-7.4-8.8-9.3c-4-1.9-8.1-2.9-12.2-2.9c-1.9,0-3.8,0.2-5.7,0.7c-1.9,0.5-3.7,1.1-5.2,2
		c-1.5,0.9-2.8,2-3.8,3.3c-1,1.3-1.5,2.8-1.5,4.4c0,2.7,1.2,4.8,3.5,6.3c2.3,1.5,5.9,2.9,10.7,4.1l15,3.8
		c10.1,2.5,17.6,6.4,22.3,11.5c4.7,5.1,7.1,11.2,7.1,18.1c0,4.3-1,8.3-2.9,12c-1.9,3.7-4.7,7.1-8.3,10c-3.6,2.9-7.9,5.2-12.9,6.9
		C1481.1,606,1475.6,606.8,1469.6,606.8z"/>
	<path class="st2" d="M1617.9,580.3c-4.1,7.6-10,13.9-17.6,19c-7.6,5.1-16.9,7.6-28,7.6c-7.3,0-14.1-1.3-20.3-3.9
		c-6.2-2.6-11.6-6.2-16.1-10.9c-4.5-4.7-8.1-10.2-10.6-16.5c-2.5-6.3-3.8-13.3-3.8-20.9c0-7.1,1.2-13.8,3.6-20.1
		c2.4-6.3,5.8-11.9,10.1-16.6c4.3-4.7,9.6-8.5,15.7-11.3c6.1-2.8,12.9-4.2,20.4-4.2c7.6,0,14.4,1.3,20.3,3.8
		c5.9,2.5,11,6.1,15.1,10.6c4.1,4.5,7.3,10,9.5,16.4c2.2,6.4,3.3,13.4,3.3,21c0,0.7,0,1.3,0,1.8c-0.1,0.7-0.2,1.3-0.2,1.8
		c-0.1,0.5-0.2,1.1-0.2,1.6h-75.3c0.4,4.7,1.5,8.7,3.4,12.2c1.9,3.5,4.2,6.3,6.9,8.6c2.7,2.3,5.8,3.9,9.1,5c3.3,1.1,6.6,1.6,9.8,1.6
		c6.4,0,11.7-1.5,15.8-4.6c4.1-3.1,7.5-6.9,10.2-11.4L1617.9,580.3z M1597.3,542.5c-0.3-2-0.9-4.2-1.9-6.7c-1-2.5-2.5-4.7-4.6-6.8
		c-2.1-2.1-4.7-3.8-8-5.3c-3.3-1.5-7.2-2.2-11.9-2.2c-6.4,0-11.9,1.9-16.5,5.7s-7.7,8.9-9.3,15.3H1597.3z"/>
</g>
<path class="st3" d="M678.3,416.5L626,465.2l-48.5-97.9l25.1-56.3c6.3-11.2,16.7-11.4,23,0L678.3,416.5L678.3,416.5z"/>
<path class="st4" d="M626,465.2L430.4,647.1l147-279.8L626,465.2L626,465.2z"/>
<path class="st5" d="M735.6,342.1c9.4-8.9,19-5.9,21.4,6.8l50.8,295.8L639.3,745.9c-5.9,3.3-21.6,4.6-21.6,4.6s-14.3-1.7-19.7-4.7
	l-167.5-98.6L735.6,342.1L735.6,342.1z"/>
<path class="st3" d="M577.5,367.3l-147,279.8l65.5-409c2.5-12.7,9.6-14,16.1-2.7L577.5,367.3z"/>
</svg>
