<svg id="Layer_1" xmlns="http://www.w3.org/2000/svg" viewBox="0 0 2040 1020"><style>.st4{fill:#ffa000}</style><path fill="#fff" d="M0 0h2040v1020H0z"/><text transform="translate(866.457 603.648)" font-size="199.847" font-family="ProductSans-Medium" fill="#7c7c7c">Firebase</text><path class="st4" d="M678.3 416.5L626 465.2l-48.5-97.9 25.1-56.3c6.3-11.2 16.7-11.4 23 0l52.7 105.5z"/><path d="M626 465.2L430.4 647.1l147-279.8 48.6 97.9z" fill="#f57f17"/><path d="M735.6 342.1c9.4-8.9 19-5.9 21.4 6.8l50.8 295.8-168.5 101.2c-5.9 3.3-21.6 4.6-21.6 4.6s-14.3-1.7-19.7-4.7l-167.5-98.6 305.1-305.1z" fill="#ffca28"/><path class="st4" d="M577.5 367.3l-147 279.8 65.5-409c2.5-12.7 9.6-14 16.1-2.7l65.4 131.9z"/></svg>