<svg id="Layer_1" xmlns="http://www.w3.org/2000/svg" viewBox="0 0 2040 1020"><style>.st1{fill:#fff}</style><path fill="#639" d="M0 0h2040v1020H0z"/><path class="st1" d="M1139.4 484.7h31.4V597h-31.4v-14.6c-11.2 16.8-25.8 18-34.8 18-34.8 0-57.3-27-57.3-59.5 0-33.7 22.5-59.5 55-59.5 9 0 25.8 1.1 35.9 18v-14.6l1.2-.1zm-58.4 56.2c0 18 12.4 31.4 31.4 31.4 16.9.4 31-12.9 31.4-29.9v-1.6c0-18-12.4-31.4-31.4-31.4-16.9-.4-31 12.9-31.4 29.9v1.6zm151.6-29.2V597h-31.4v-85.4h-12.4v-27h12.4v-38.2h31.4v38.2h21.3v27h-21.3zm95.5 0c-7.9-6.7-14.6-7.9-18-7.9-7.9 0-12.4 3.4-12.4 9 0 3.4 1.1 6.7 10.1 10.1l7.9 2.2c9 3.4 22.5 6.7 28.1 15.7 3.4 4.5 5.6 11.2 5.6 19.1 0 10.1-3.4 20.2-12.4 28.1-9 7.9-20.2 12.4-33.7 12.4-23.6 0-35.9-11.2-43.8-19.1l16.8-19.1c6.7 6.7 15.7 13.5 24.7 13.5s15.7-4.5 15.7-12.4c0-6.7-5.6-10.1-10.1-11.2l-6.7-2.2c-7.9-3.4-16.8-6.7-23.6-13.5-5.6-5.6-9-12.4-9-21.3 0-11.2 5.6-20.2 11.2-25.8 9-6.7 20.2-7.9 29.2-7.9 7.9 0 21.3 1.1 35.9 12.4l-15.5 17.9zm68.5-12.4c11.2-15.7 27-18 35.9-18 32.6 0 55 25.8 55 59.5s-22.5 59.5-56.2 59.5c-6.7 0-23.6-1.1-35.9-18V597h-30.3V408.4h31.4l.1 90.9zm-3.4 41.6c0 18 12.4 31.4 31.4 31.4 16.9.4 31-12.9 31.4-29.9v-1.6c0-18-12.4-31.4-31.4-31.4s-31.4 13.5-31.4 31.5zm146 39.3l-53.9-95.5h37.1l34.8 64 31.4-64h35.9l-89.8 171.8h-35.9l40.4-76.3zm-499.8-76.4h-78.6v31.4h41.6c-6.7 21.3-22.5 35.9-51.7 35.9-32.6 0-56.2-27-56.2-59.5s22.5-60.6 55-60.6c18 0 35.9 9 47.2 23.6l25.8-16.8c-16.8-23.6-43.8-37.1-73-37.1-49.4 0-89.8 40.4-89.8 91s38.2 91 89.8 91 89.8-40.4 89.8-91c1.3-3.4.1-5.6.1-7.9zM607.8 317.7c-105.8 0-192.3 86.6-192.3 192.3S502 702.3 607.8 702.3 800.1 615.8 800.1 510s-86.5-192.3-192.3-192.3zM500.6 617.2c-28.9-28.9-44-67.3-44-104.4l149.7 148.4c-38.4-1.4-76.8-15.2-105.7-44zm140.2 39.9L460.8 477c15.1-67.3 75.6-118.1 147.1-118.1 50.8 0 94.8 24.7 122.3 61.8l-20.6 18c-23.4-31.6-60.5-52.2-101.7-52.2-53.6 0-98.9 34.3-116.8 82.4l158 158c39.8-13.7 70.1-48.1 79.7-89.3h-66V510H759c-.1 71.4-50.9 131.9-118.2 147.1z"/></svg>