<svg id="Layer_1" xmlns="http://www.w3.org/2000/svg" viewBox="0 0 2040 1020"><style>.st1{fill:#fff}</style><path fill="#f05133" d="M0 0h2040v1020H0z"/><path class="st1" d="M1174.1 447.6c6.4 8.7 13.1 20.9 13.1 38.4 0 42.2-30.8 66.8-75.4 66.8-11.3 0-21.6-1.5-28-3.4l-11.7 20.1 34.7 2.3c61.3 4.2 97.4 6.1 97.4 56.6 0 43.7-35.8 68.4-97.4 68.4-64.1 0-88.5-17.5-88.5-47.5 0-17.1 7.1-26.2 19.5-38.7-11.7-5.3-15.6-14.8-15.6-25 0-8.4 3.9-16 10.3-23.2 6.4-7.2 13.5-14.4 22-22.8-17.3-9.1-30.5-28.9-30.5-57 0-43.7 26.9-73.7 81.1-73.7 15.2 0 24.4 1.5 32.6 3.8h69.1V445l-32.7 2.6zm-104.8 173.2c-4.6 6.1-9.2 12.5-9.2 20.1 0 15.2 18.1 19.7 42.9 19.7 20.5 0 48.5-1.5 48.5-22 0-12.2-13.5-12.9-30.5-14.1l-51.7-3.7zm39-174.3c-19.5 0-34 10.3-34 34.9 0 18.6 9.6 31.5 32.9 31.5 19.8 0 33.3-12.5 33.3-32.3 0-22.4-12.1-34.1-32.2-34.1zM1223.3 606.8v-30l18.1-2.7c5-.8 5.7-1.9 5.7-7.6V454.9c0-4.2-1.1-6.8-4.6-8l-19.1-7.2 3.9-30.7h73.3v157.6c0 6.1.3 6.8 5.7 7.6l18.1 2.7v30h-101.1zm45.7-228.2c-20.2 0-31.9-12.5-31.9-34.2 0-21.6 11.7-33.4 31.9-33.4 20.5 0 32.2 11.8 32.2 33.4.1 21.7-11.6 34.2-32.2 34.2zM1464.3 592.1c-15.2 8-37.5 15.2-57.7 15.2-42.1 0-58.1-18.2-58.1-61.1v-99.5c0-2.3 0-3.8-2.8-3.8h-24.8v-33.8c31.2-3.8 43.6-20.5 47.5-61.9h33.7v53.9c0 2.6 0 3.8 2.8 3.8h49.9v38H1402v90.8c0 22.4 5 31.1 24.1 31.1 9.9 0 20.2-2.7 28.7-6.1l9.5 33.4zM939.6 492.4l-162-173.6c-9.3-10-24.4-10-33.8 0l-33.6 36.1 42.7 45.7c9.9-3.6 21.3-1.2 29.2 7.3 7.9 8.5 10.2 20.8 6.7 31.5l41.1 44.1c9.9-3.7 21.4-1.3 29.4 7.2 11.1 11.9 11.1 31.2 0 43.1-11.1 11.9-29.1 11.9-40.2 0-8.3-9-10.4-22.1-6.2-33.1l-38.3-41.1v108.2c2.7 1.4 5.3 3.4 7.5 5.8 11.1 11.9 11.1 31.2 0 43.1-11.1 11.9-29.1 11.9-40.2 0-11.1-11.9-11.1-31.2 0-43.1 2.7-2.9 5.9-5.2 9.3-6.6V457.6c-3.4-1.5-6.6-3.7-9.3-6.6-8.4-9-10.4-22.2-6.1-33.3l-42-45.1-111 119.1c-9.3 10-9.3 26.2 0 36.2l161.9 173.6c9.3 10 24.4 10 33.8 0l161.2-172.8c9.2-10 9.2-26.3-.1-36.3z"/></svg>