<svg xmlns="http://www.w3.org/2000/svg" viewBox="0 0 2040 1020"><path fill="#f7df1e" d="M0 0h2040v1020H0z"/><path d="M1076.9 577.4c14.5 23.7 33.4 41.1 66.8 41.1 28.1 0 46-14 46-33.4 0-23.2-18.4-31.5-49.3-45l-16.9-7.3c-48.9-20.8-81.4-46.9-81.4-102.1 0-50.8 38.7-89.5 99.2-89.5 43.1 0 74.1 15 96.4 54.3l-52.8 33.9c-11.6-20.8-24.1-29-43.6-29-19.8 0-32.4 12.6-32.4 29 0 20.3 12.6 28.6 41.7 41.1l16.9 7.3c57.6 24.7 90.1 49.9 90.1 106.4 0 61-47.9 94.4-112.3 94.4-62.9 0-103.6-30-123.5-69.3l55.1-31.9zm-239.3 5.9c10.6 18.9 20.3 34.9 43.6 34.9 22.3 0 36.3-8.7 36.3-42.6V345.2h67.8v231.3c0 70.2-41.1 102.1-101.2 102.1-54.3 0-85.7-28.1-101.6-61.9l55.1-33.4z"/></svg>