<?xml version="1.0" encoding="utf-8"?>
<!-- Generator: Adobe Illustrator 23.0.3, SVG Export Plug-In . SVG Version: 6.00 Build 0)  -->
<svg version="1.1" id="Layer_1" xmlns="http://www.w3.org/2000/svg" xmlns:xlink="http://www.w3.org/1999/xlink" x="0px" y="0px"
	 viewBox="0 0 2040 1020" style="enable-background:new 0 0 2040 1020;" xml:space="preserve">
<style type="text/css">
	.st0{fill:#282C34;}
	.st1{fill:#61DAFB;}
	.st2{enable-background:new    ;}
</style>
<path class="st0" d="M0,0h2040v1020H0V0z"/>
<path class="st1" d="M922.6,510.1c0-32.8-41.1-63.8-104-83.1c14.5-64.2,8.1-115.2-20.4-131.5c-6.6-3.8-14.2-5.6-22.6-5.6v22.5
	c4.6,0,8.4,0.9,11.5,2.6c13.7,7.9,19.7,37.8,15,76.4c-1.1,9.5-2.9,19.5-5.1,29.7c-19.8-4.8-41.4-8.6-64-11
	c-13.6-18.7-27.7-35.6-42-50.4c32.9-30.6,63.7-47.3,84.7-47.3v-22.5c-27.7,0-64,19.8-100.8,54.1c-36.7-34.1-73-53.7-100.8-53.7v22.5
	c20.9,0,51.8,16.6,84.7,47c-14.1,14.8-28.2,31.7-41.7,50.3c-22.8,2.4-44.4,6.2-64.2,11.1c-2.3-10.1-4-19.9-5.2-29.3
	c-4.7-38.5,1.1-68.5,14.7-76.5c3-1.8,7-2.6,11.6-2.6v-22.5c-8.5,0-16.1,1.8-22.8,5.6c-28.3,16.3-34.7,67.3-20.1,131.2
	c-62.7,19.4-103.6,50.3-103.6,83c0,32.8,41.1,63.8,104,83.1c-14.5,64.2-8.1,115.2,20.4,131.5c6.6,3.8,14.2,5.6,22.7,5.6
	c27.7,0,64-19.8,100.8-54.1c36.7,34.1,73,53.7,100.8,53.7c8.5,0,16.1-1.8,22.8-5.6c28.3-16.3,34.7-67.3,20.1-131.2
	C881.8,573.8,922.6,542.7,922.6,510.1L922.6,510.1z M791.3,442.8c-3.7,13-8.4,26.4-13.6,39.8c-4.1-8.1-8.5-16.1-13.2-24.2
	c-4.6-8.1-9.6-15.9-14.5-23.6C764.3,436.9,778.1,439.5,791.3,442.8L791.3,442.8z M745.1,550.2c-7.9,13.6-15.9,26.5-24.3,38.5
	c-15,1.3-30.3,2-45.6,2c-15.2,0-30.5-0.7-45.4-1.9c-8.4-12-16.5-24.8-24.4-38.3c-7.7-13.2-14.6-26.6-21-40.1
	c6.3-13.5,13.3-27,20.9-40.2c7.9-13.6,15.9-26.5,24.3-38.5c15-1.3,30.3-2,45.6-2c15.2,0,30.5,0.7,45.4,1.9
	c8.4,12,16.5,24.8,24.4,38.3c7.7,13.2,14.6,26.6,21,40.1C759.6,523.5,752.7,537,745.1,550.2L745.1,550.2z M777.7,537.1
	c5.4,13.5,10.1,27,13.9,40.1c-13.2,3.2-27.1,6-41.6,8.1c4.9-7.8,9.9-15.7,14.5-23.9C769.2,553.3,773.5,545.2,777.7,537.1
	L777.7,537.1z M675.4,644.7c-9.4-9.7-18.8-20.5-28-32.3c9.1,0.4,18.4,0.7,27.7,0.7c9.5,0,18.9-0.2,28-0.7
	C694,624.2,684.7,635,675.4,644.7z M600.3,585.3c-14.3-2.1-28.1-4.7-41.4-8c3.7-13,8.4-26.4,13.6-39.8c4.1,8.1,8.5,16.1,13.2,24.2
	S595.4,577.6,600.3,585.3L600.3,585.3z M674.9,375.4c9.4,9.7,18.8,20.5,28,32.3c-9.1-0.4-18.4-0.7-27.7-0.7c-9.5,0-18.9,0.2-28,0.7
	C656.2,395.9,665.6,385.1,674.9,375.4z M600.2,434.8c-4.9,7.8-9.9,15.7-14.5,23.9c-4.6,8.1-9,16.1-13.1,24.2
	c-5.4-13.5-10.1-27-13.9-40.1C571.9,439.6,585.8,436.9,600.2,434.8z M509,561.1c-35.7-15.2-58.8-35.2-58.8-51s23.1-35.9,58.8-51
	c8.7-3.7,18.2-7.1,27.9-10.2c5.7,19.8,13.3,40.3,22.7,61.4c-9.3,21-16.7,41.5-22.4,61.1C527.2,568.2,517.7,564.8,509,561.1z
	 M563.2,705.2c-13.7-7.9-19.7-37.8-15-76.4c1.1-9.5,2.9-19.5,5.1-29.7c19.8,4.8,41.4,8.6,64,11c13.6,18.7,27.7,35.6,42,50.4
	c-32.9,30.6-63.7,47.3-84.7,47.3C570.1,707.8,566.3,706.9,563.2,705.2L563.2,705.2z M802.5,628.4c4.7,38.5-1.1,68.5-14.7,76.5
	c-3,1.8-7,2.6-11.6,2.6c-20.9,0-51.8-16.6-84.7-47c14.1-14.8,28.2-31.7,41.7-50.3c22.8-2.4,44.4-6.2,64.2-11.1
	C799.6,609.2,801.4,619,802.5,628.4z M841.3,561.1c-8.7,3.7-18.2,7.1-27.9,10.2c-5.7-19.8-13.3-40.3-22.7-61.4
	c9.3-21,16.7-41.5,22.4-61.1c10,3.1,19.5,6.6,28.3,10.3c35.7,15.2,58.8,35.2,58.8,51C900.1,525.9,877,546,841.3,561.1L841.3,561.1z"
	/>
<circle class="st1" cx="675.1" cy="510.1" r="46.1"/>
<g class="st2">
	<path class="st1" d="M1021.3,436h57.5c35.4,0,62.4,12.5,62.4,50.4c0,26-13.5,41.6-33.8,48.6l40.6,71h-33.8l-36.7-66.6h-26v66.6
		h-30.2V436z M1075.6,515.6c23.1,0,35.9-9.9,35.9-29.1c0-19.5-12.7-26.3-35.9-26.3h-24.2v55.4H1075.6z"/>
	<path class="st1" d="M1159.8,542.4c0-41.6,28.9-67.1,58.8-67.1c34.6,0,52.8,25,52.8,60.6c0,5.7-0.5,11.4-1.3,14.6H1189
		c2.6,22.6,17.2,35.6,37.7,35.6c10.9,0,20.3-3.4,29.6-9.4l10.1,18.7c-12.2,8.1-27.6,13.8-43.7,13.8
		C1187.4,609.2,1159.8,584.5,1159.8,542.4z M1245.4,530.1c0-19.8-8.6-31.7-26-31.7c-15.1,0-28.1,11.2-30.7,31.7H1245.4z"/>
	<path class="st1" d="M1288.3,571.7c0-27.3,22.6-41.6,75.1-47.3c-0.5-13.5-6-25-23.4-25c-12.5,0-24.4,5.7-35.9,12.5l-10.9-20
		c14-8.8,32.2-16.6,52.5-16.6c31.7,0,47.6,19.5,47.6,55.1v75.7h-24.7l-2.1-14h-1c-11.4,9.6-24.4,17.2-39.5,17.2
		C1303.6,609.2,1288.3,594.1,1288.3,571.7z M1363.4,571.7v-28.6c-34.8,4.4-46.3,13.5-46.3,26.3c0,11.4,7.8,16.4,18.5,16.4
		C1346,585.8,1353.8,580.6,1363.4,571.7z"/>
	<path class="st1" d="M1419.1,542.4c0-42.6,29.9-67.1,64-67.1c16.4,0,28.1,6.2,37.4,14.3l-14.6,19.5c-6.8-6-13.3-9.4-21.3-9.4
		c-20.5,0-34.8,16.9-34.8,42.6c0,25.5,14,42.4,34.1,42.4c9.9,0,19-4.9,26.3-10.9l12.2,19.8c-12,10.4-27,15.6-41.6,15.6
		C1445.8,609.2,1419.1,584.7,1419.1,542.4z"/>
	<path class="st1" d="M1547.5,562.9v-60.8h-18.2v-22.4l19.8-1.3l3.6-34.8h25v34.8h32.5v23.7h-32.5v60.8c0,15.1,5.7,22.4,17.9,22.4
		c4.4,0,9.6-1.3,13.3-2.9l5.2,22.1c-7,2.3-15.9,4.7-26,4.7C1558.4,609.2,1547.5,590.5,1547.5,562.9z"/>
</g>
</svg>
