<svg id="Layer_1" xmlns="http://www.w3.org/2000/svg" viewBox="0 0 2040 1020"><style>.st1{fill:#61dafb}</style><path fill="#282c34" d="M0 0h2040v1020H0z"/><path class="st1" d="M922.6 510.1c0-32.8-41.1-63.8-104-83.1 14.5-64.2 8.1-115.2-20.4-131.5-6.6-3.8-14.2-5.6-22.6-5.6v22.5c4.6 0 8.4.9 11.5 2.6 13.7 7.9 19.7 37.8 15 76.4-1.1 9.5-2.9 19.5-5.1 29.7-19.8-4.8-41.4-8.6-64-11-13.6-18.7-27.7-35.6-42-50.4 32.9-30.6 63.7-47.3 84.7-47.3v-22.5c-27.7 0-64 19.8-100.8 54.1-36.7-34.1-73-53.7-100.8-53.7v22.5c20.9 0 51.8 16.6 84.7 47-14.1 14.8-28.2 31.7-41.7 50.3-22.8 2.4-44.4 6.2-64.2 11.1-2.3-10.1-4-19.9-5.2-29.3-4.7-38.5 1.1-68.5 14.7-76.5 3-1.8 7-2.6 11.6-2.6v-22.5c-8.5 0-16.1 1.8-22.8 5.6-28.3 16.3-34.7 67.3-20.1 131.2-62.7 19.4-103.6 50.3-103.6 83 0 32.8 41.1 63.8 104 83.1-14.5 64.2-8.1 115.2 20.4 131.5 6.6 3.8 14.2 5.6 22.7 5.6 27.7 0 64-19.8 100.8-54.1 36.7 34.1 73 53.7 100.8 53.7 8.5 0 16.1-1.8 22.8-5.6 28.3-16.3 34.7-67.3 20.1-131.2 62.7-19.3 103.5-50.4 103.5-83zm-131.3-67.3c-3.7 13-8.4 26.4-13.6 39.8-4.1-8.1-8.5-16.1-13.2-24.2-4.6-8.1-9.6-15.9-14.5-23.6 14.3 2.1 28.1 4.7 41.3 8zm-46.2 107.4c-7.9 13.6-15.9 26.5-24.3 38.5-15 1.3-30.3 2-45.6 2-15.2 0-30.5-.7-45.4-1.9-8.4-12-16.5-24.8-24.4-38.3-7.7-13.2-14.6-26.6-21-40.1 6.3-13.5 13.3-27 20.9-40.2 7.9-13.6 15.9-26.5 24.3-38.5 15-1.3 30.3-2 45.6-2 15.2 0 30.5.7 45.4 1.9 8.4 12 16.5 24.8 24.4 38.3 7.7 13.2 14.6 26.6 21 40.1-6.4 13.5-13.3 27-20.9 40.2zm32.6-13.1c5.4 13.5 10.1 27 13.9 40.1-13.2 3.2-27.1 6-41.6 8.1 4.9-7.8 9.9-15.7 14.5-23.9 4.7-8.1 9-16.2 13.2-24.3zM675.4 644.7c-9.4-9.7-18.8-20.5-28-32.3 9.1.4 18.4.7 27.7.7 9.5 0 18.9-.2 28-.7-9.1 11.8-18.4 22.6-27.7 32.3zm-75.1-59.4c-14.3-2.1-28.1-4.7-41.4-8 3.7-13 8.4-26.4 13.6-39.8 4.1 8.1 8.5 16.1 13.2 24.2s9.7 15.9 14.6 23.6zm74.6-209.9c9.4 9.7 18.8 20.5 28 32.3-9.1-.4-18.4-.7-27.7-.7-9.5 0-18.9.2-28 .7 9-11.8 18.4-22.6 27.7-32.3zm-74.7 59.4c-4.9 7.8-9.9 15.7-14.5 23.9-4.6 8.1-9 16.1-13.1 24.2-5.4-13.5-10.1-27-13.9-40.1 13.2-3.2 27.1-5.9 41.5-8zM509 561.1c-35.7-15.2-58.8-35.2-58.8-51s23.1-35.9 58.8-51c8.7-3.7 18.2-7.1 27.9-10.2 5.7 19.8 13.3 40.3 22.7 61.4-9.3 21-16.7 41.5-22.4 61.1-10-3.2-19.5-6.6-28.2-10.3zm54.2 144.1c-13.7-7.9-19.7-37.8-15-76.4 1.1-9.5 2.9-19.5 5.1-29.7 19.8 4.8 41.4 8.6 64 11 13.6 18.7 27.7 35.6 42 50.4-32.9 30.6-63.7 47.3-84.7 47.3-4.5 0-8.3-.9-11.4-2.6zm239.3-76.8c4.7 38.5-1.1 68.5-14.7 76.5-3 1.8-7 2.6-11.6 2.6-20.9 0-51.8-16.6-84.7-47 14.1-14.8 28.2-31.7 41.7-50.3 22.8-2.4 44.4-6.2 64.2-11.1 2.2 10.1 4 19.9 5.1 29.3zm38.8-67.3c-8.7 3.7-18.2 7.1-27.9 10.2-5.7-19.8-13.3-40.3-22.7-61.4 9.3-21 16.7-41.5 22.4-61.1 10 3.1 19.5 6.6 28.3 10.3 35.7 15.2 58.8 35.2 58.8 51-.1 15.8-23.2 35.9-58.9 51z"/><circle class="st1" cx="675.1" cy="510.1" r="46.1"/><text transform="translate(999.681 606.065)" class="st1" letter-spacing="-2" font-size="260" font-family="SourceSansPro-Semibold">React</text></svg>