<svg id="Layer_1" xmlns="http://www.w3.org/2000/svg" viewBox="0 0 2040 1020"><style>.st1{fill:#2489ca}</style><path fill="#f5f7f7" d="M0 0h2040v1020H0z"/><text transform="translate(539.837 849.599)" class="st1" letter-spacing="-3" font-size="120" font-family="SegoeUI-Semibold">Visual Studio Code</text><path class="st1" d="M784.3 361.4s-11.7-8.4 2.3-19.7l32.7-29.3s9.4-9.8 19.3-1.3l301.9 228.6v109.6s-.1 17.2-22.2 15.3l-334-303.2z"/><path d="M862.2 432l-77.8 70.7s-8 5.9 0 16.6l36.1 32.9s8.6 9.2 21.3-1.3l82.5-62.6-62.1-56.3z" fill="#1070b3"/><path d="M998.8 432.6l142.7-109-.9-109s-6.1-23.8-26.4-11.4l-190 172.9 74.6 56.5z" fill="#0877b9"/><path d="M1118.3 664.8c8.3 8.5 18.3 5.7 18.3 5.7l111.2-54.8C1262 606 1260 594 1260 594V266.7c0-14.4-14.7-19.4-14.7-19.4l-96.4-46.5c-21.1-13-34.9 2.3-34.9 2.3s17.7-12.8 26.4 11.4v432.7c0 3-.6 5.9-1.9 8.5-2.5 5.1-8 9.9-21.3 7.9l1.1 1.2z" fill="#3c99d4"/></svg>