<?xml version="1.0" encoding="utf-8"?>
<!-- Generator: Adobe Illustrator 23.0.3, SVG Export Plug-In . SVG Version: 6.00 Build 0)  -->
<svg version="1.1" id="Layer_1" xmlns="http://www.w3.org/2000/svg" xmlns:xlink="http://www.w3.org/1999/xlink" x="0px" y="0px"
	 viewBox="0 0 2040 1020" style="enable-background:new 0 0 2040 1020;" xml:space="preserve">
<style type="text/css">
	.st0{fill:#F5F7F7;}
	.st1{enable-background:new    ;}
	.st2{fill:#2489CA;}
	.st3{fill:#1070B3;}
	.st4{fill:#0877B9;}
	.st5{fill:#3C99D4;}
</style>
<path class="st0" d="M0,0h2040v1020H0V0z"/>
<g class="st1">
	<path class="st2" d="M616.1,765.6l-30.2,84h-15.6l-29.6-84h15.2l20.7,63.8c0.7,2,1.2,4.4,1.5,7.1h0.2c0.3-2.2,0.8-4.6,1.7-7.2
		l21.2-63.6H616.1z"/>
	<path class="st2" d="M629.5,777c-2.2,0-4.1-0.7-5.7-2.2c-1.6-1.4-2.4-3.3-2.4-5.5s0.8-4.1,2.4-5.6c1.6-1.5,3.5-2.2,5.7-2.2
		c2.3,0,4.3,0.7,5.9,2.2c1.6,1.5,2.4,3.3,2.4,5.6c0,2.1-0.8,3.9-2.4,5.4C633.8,776.2,631.8,777,629.5,777z M636.3,849.6h-13.6v-60
		h13.6V849.6z"/>
	<path class="st2" d="M647.3,847.7v-12.6c5.1,3.9,10.7,5.8,16.8,5.8c8.2,0,12.3-2.4,12.3-7.3c0-1.4-0.4-2.5-1.1-3.5
		c-0.7-1-1.7-1.8-2.8-2.5c-1.2-0.7-2.6-1.4-4.2-2c-1.6-0.6-3.4-1.3-5.4-2c-2.5-1-4.7-2-6.7-3.1c-2-1.1-3.6-2.3-4.9-3.7
		c-1.3-1.4-2.3-3-3-4.7c-0.7-1.8-1-3.8-1-6.2c0-2.9,0.7-5.4,2.1-7.6c1.4-2.2,3.2-4.1,5.5-5.6c2.3-1.5,4.9-2.6,7.9-3.4s6-1.1,9.1-1.1
		c5.5,0,10.5,0.8,14.9,2.5v11.9c-4.2-2.9-9.1-4.3-14.5-4.3c-1.7,0-3.3,0.2-4.7,0.5c-1.4,0.4-2.6,0.8-3.5,1.5c-1,0.6-1.7,1.4-2.3,2.3
		c-0.5,0.9-0.8,1.8-0.8,2.9c0,1.3,0.3,2.4,0.8,3.3c0.5,0.9,1.4,1.7,2.4,2.4c1.1,0.7,2.4,1.3,3.9,1.9c1.5,0.6,3.2,1.2,5.2,1.8
		c2.6,1.1,4.9,2.1,6.9,3.2c2.1,1.1,3.8,2.3,5.2,3.7c1.4,1.4,2.6,3,3.3,4.8c0.8,1.8,1.2,4,1.2,6.5c0,3-0.7,5.7-2.1,8
		c-1.4,2.3-3.3,4.1-5.6,5.6c-2.3,1.5-5,2.6-8.1,3.3c-3.1,0.7-6.3,1.1-9.7,1.1C657.8,851,652.1,849.9,647.3,847.7z"/>
	<path class="st2" d="M752.1,849.6h-13.6v-9.5h-0.2c-3.9,7.3-10.1,10.9-18.4,10.9c-14.2,0-21.3-8.5-21.3-25.5v-35.9h13.6v34.5
		c0,10.8,4.2,16.2,12.5,16.2c4,0,7.3-1.5,9.9-4.5c2.6-3,3.9-6.9,3.9-11.7v-34.5h13.6V849.6z"/>
	<path class="st2" d="M812.8,849.6h-13.2v-9.4h-0.2c-4.1,7.2-10.2,10.8-18.2,10.8c-5.9,0-10.5-1.6-13.9-4.8c-3.3-3.2-5-7.4-5-12.7
		c0-11.3,6.5-17.9,19.6-19.8l17.8-2.5c0-8.6-4.1-12.8-12.2-12.8c-7.1,0-13.6,2.5-19.3,7.4v-11.9c6.3-3.8,13.6-5.6,21.9-5.6
		c15.2,0,22.7,7.5,22.7,22.4V849.6z M799.7,820.1l-12.6,1.8c-3.9,0.5-6.8,1.5-8.8,2.8c-2,1.4-3,3.8-3,7.3c0,2.5,0.9,4.6,2.7,6.2
		c1.8,1.6,4.2,2.4,7.3,2.4c4.1,0,7.6-1.5,10.3-4.4c2.7-2.9,4.1-6.6,4.1-11V820.1z"/>
	<path class="st2" d="M840.1,849.6h-13.7v-88.8h13.7V849.6z"/>
	<path class="st2" d="M882.4,846.3v-14.4c1.3,1.2,2.8,2.2,4.6,3.2c1.8,0.9,3.7,1.7,5.7,2.4s4,1.1,6,1.5s3.8,0.5,5.5,0.5
		c5.9,0,10.2-1,13.1-2.9c2.9-2,4.3-4.8,4.3-8.5c0-2-0.5-3.7-1.4-5.2c-1-1.5-2.3-2.8-4-4c-1.7-1.2-3.7-2.4-6.1-3.5
		c-2.3-1.1-4.8-2.3-7.5-3.5c-2.9-1.5-5.5-3.1-8-4.6c-2.5-1.6-4.6-3.3-6.4-5.2c-1.8-1.9-3.2-4-4.3-6.4c-1-2.4-1.6-5.2-1.6-8.4
		c0-3.9,0.9-7.4,2.7-10.3c1.8-2.9,4.1-5.3,7-7.2c2.9-1.9,6.2-3.3,9.9-4.2c3.7-0.9,7.5-1.4,11.4-1.4c8.8,0,15.2,1,19.2,3v13.8
		c-4.8-3.4-10.9-5.2-18.4-5.2c-2.1,0-4.1,0.2-6.2,0.6c-2.1,0.4-3.9,1-5.5,1.9c-1.6,0.9-2.9,2.1-4,3.5c-1,1.4-1.5,3.1-1.5,5.1
		c0,1.9,0.4,3.5,1.2,4.9c0.8,1.4,1.9,2.6,3.4,3.8c1.5,1.1,3.3,2.2,5.5,3.3c2.2,1.1,4.7,2.2,7.5,3.5c2.9,1.5,5.7,3.1,8.3,4.8
		c2.6,1.7,4.9,3.5,6.9,5.6c2,2,3.5,4.3,4.7,6.8c1.2,2.5,1.7,5.3,1.7,8.5c0,4.3-0.9,7.9-2.6,10.8c-1.7,2.9-4,5.3-6.9,7.1
		c-2.9,1.8-6.3,3.2-10,4c-3.8,0.8-7.8,1.2-12,1.2c-1.4,0-3.1-0.1-5.2-0.3c-2.1-0.2-4.2-0.5-6.3-0.9c-2.1-0.4-4.2-0.9-6.1-1.5
		C885.1,847.7,883.6,847,882.4,846.3z"/>
	<path class="st2" d="M975.3,849c-2.7,1.3-6.2,2-10.5,2c-11.6,0-17.5-5.6-17.5-16.8v-33.9h-10v-10.7h10v-13.9l13.6-3.9v17.8h14.4
		v10.7h-14.4v30c0,3.6,0.6,6.1,1.9,7.6s3.4,2.3,6.4,2.3c2.3,0,4.3-0.7,6-2V849z"/>
	<path class="st2" d="M1036.3,849.6h-13.6v-9.5h-0.2c-3.9,7.3-10.1,10.9-18.4,10.9c-14.2,0-21.3-8.5-21.3-25.5v-35.9h13.6v34.5
		c0,10.8,4.2,16.2,12.5,16.2c4,0,7.3-1.5,9.9-4.5c2.6-3,3.9-6.9,3.9-11.7v-34.5h13.6V849.6z"/>
	<path class="st2" d="M1105.6,849.6H1092v-10.2h-0.2c-4.4,7.7-11.1,11.6-20.2,11.6c-7.4,0-13.3-2.7-17.7-8.1
		c-4.4-5.4-6.7-12.7-6.7-21.9c0-9.9,2.5-17.9,7.4-23.8c4.9-6,11.4-9,19.6-9c8.1,0,14,3.2,17.6,9.7h0.2v-37.1h13.6V849.6z
		 M1092.1,822.2v-7.9c0-4.3-1.4-7.9-4.2-10.8c-2.8-3-6.3-4.5-10.6-4.5c-5.1,0-9.1,1.9-12,5.7c-2.9,3.8-4.4,9-4.4,15.8
		c0,6.1,1.4,10.9,4.2,14.4c2.8,3.5,6.6,5.3,11.3,5.3c4.6,0,8.4-1.7,11.3-5.1C1090.7,831.7,1092.1,827.4,1092.1,822.2z"/>
	<path class="st2" d="M1127.2,777c-2.2,0-4.1-0.7-5.7-2.2c-1.6-1.4-2.4-3.3-2.4-5.5s0.8-4.1,2.4-5.6c1.6-1.5,3.5-2.2,5.7-2.2
		c2.3,0,4.3,0.7,5.9,2.2c1.6,1.5,2.4,3.3,2.4,5.6c0,2.1-0.8,3.9-2.4,5.4C1131.4,776.2,1129.5,777,1127.2,777z M1133.9,849.6h-13.6
		v-60h13.6V849.6z"/>
	<path class="st2" d="M1175.3,851c-9.3,0-16.7-2.8-22.2-8.4c-5.5-5.6-8.3-13-8.3-22.3c0-10.1,2.9-17.9,8.6-23.6
		c5.8-5.7,13.5-8.5,23.3-8.5c9.4,0,16.7,2.8,21.9,8.3c5.2,5.5,7.9,13.1,7.9,22.9c0,9.6-2.8,17.2-8.5,23
		C1192.4,848.1,1184.8,851,1175.3,851z M1175.9,799c-5.3,0-9.5,1.9-12.6,5.6c-3.1,3.7-4.6,8.8-4.6,15.4c0,6.3,1.6,11.2,4.7,14.9
		c3.1,3.6,7.3,5.4,12.5,5.4c5.4,0,9.5-1.8,12.3-5.3c2.9-3.6,4.3-8.6,4.3-15.2c0-6.6-1.4-11.7-4.3-15.3
		C1185.4,800.8,1181.3,799,1175.9,799z"/>
	<path class="st2" d="M1307.4,846.1c-6.3,3.3-14.2,4.9-23.6,4.9c-12.2,0-22-3.8-29.3-11.5c-7.3-7.7-11-17.8-11-30.3
		c0-13.4,4.1-24.3,12.4-32.6c8.3-8.3,18.7-12.4,31.3-12.4c8.1,0,14.9,1.2,20.2,3.5v13.8c-5.7-3.4-11.9-5-18.8-5
		c-9.1,0-16.5,2.9-22.1,8.7c-5.6,5.8-8.5,13.6-8.5,23.3c0,9.3,2.6,16.6,7.9,22.1c5.3,5.5,12.2,8.2,20.8,8.2c7.9,0,14.8-1.9,20.6-5.6
		V846.1z"/>
	<path class="st2" d="M1345.4,851c-9.3,0-16.7-2.8-22.2-8.4c-5.5-5.6-8.3-13-8.3-22.3c0-10.1,2.9-17.9,8.6-23.6
		c5.8-5.7,13.5-8.5,23.3-8.5c9.4,0,16.7,2.8,21.9,8.3c5.2,5.5,7.9,13.1,7.9,22.9c0,9.6-2.8,17.2-8.5,23
		C1362.6,848.1,1355,851,1345.4,851z M1346.1,799c-5.3,0-9.5,1.9-12.6,5.6c-3.1,3.7-4.6,8.8-4.6,15.4c0,6.3,1.6,11.2,4.7,14.9
		c3.1,3.6,7.3,5.4,12.5,5.4c5.4,0,9.5-1.8,12.3-5.3c2.9-3.6,4.3-8.6,4.3-15.2c0-6.6-1.4-11.7-4.3-15.3
		C1355.5,800.8,1351.4,799,1346.1,799z"/>
	<path class="st2" d="M1442.1,849.6h-13.6v-10.2h-0.2c-4.4,7.7-11.1,11.6-20.2,11.6c-7.4,0-13.3-2.7-17.7-8.1
		c-4.4-5.4-6.7-12.7-6.7-21.9c0-9.9,2.5-17.9,7.4-23.8c4.9-6,11.4-9,19.6-9c8.1,0,14,3.2,17.6,9.7h0.2v-37.1h13.6V849.6z
		 M1428.6,822.2v-7.9c0-4.3-1.4-7.9-4.2-10.8c-2.8-3-6.3-4.5-10.6-4.5c-5.1,0-9.1,1.9-12,5.7c-2.9,3.8-4.4,9-4.4,15.8
		c0,6.1,1.4,10.9,4.2,14.4c2.8,3.5,6.6,5.3,11.3,5.3c4.6,0,8.4-1.7,11.3-5.1C1427.2,831.7,1428.6,827.4,1428.6,822.2z"/>
	<path class="st2" d="M1507.6,823.3h-40.9c0.2,5.5,1.9,9.8,5.1,12.8c3.3,3,7.7,4.5,13.4,4.5c6.4,0,12.3-1.9,17.6-5.7v11
		c-5.5,3.4-12.7,5.2-21.7,5.2c-8.8,0-15.8-2.7-20.8-8.2c-5-5.4-7.5-13.1-7.5-23c0-9.3,2.8-16.9,8.3-22.8c5.5-5.9,12.4-8.8,20.6-8.8
		s14.6,2.6,19,7.9c4.5,5.3,6.7,12.6,6.7,22V823.3z M1494.5,813.7c0-4.9-1.2-8.7-3.5-11.4c-2.3-2.7-5.4-4.1-9.4-4.1
		c-3.9,0-7.2,1.4-9.9,4.3c-2.7,2.9-4.4,6.6-5,11.2H1494.5z"/>
</g>
<path class="st2" d="M784.3,361.4c0,0-11.7-8.4,2.3-19.7l32.7-29.3c0,0,9.4-9.8,19.3-1.3l301.9,228.6v109.6c0,0-0.1,17.2-22.2,15.3
	L784.3,361.4L784.3,361.4z"/>
<path class="st3" d="M862.2,432l-77.8,70.7c0,0-8,5.9,0,16.6l36.1,32.9c0,0,8.6,9.2,21.3-1.3l82.5-62.6L862.2,432L862.2,432z"/>
<path class="st4" d="M998.8,432.6l142.7-109l-0.9-109c0,0-6.1-23.8-26.4-11.4l-190,172.9L998.8,432.6L998.8,432.6z"/>
<path class="st5" d="M1118.3,664.8c8.3,8.5,18.3,5.7,18.3,5.7l111.2-54.8C1262,606,1260,594,1260,594V266.7
	c0-14.4-14.7-19.4-14.7-19.4l-96.4-46.5c-21.1-13-34.9,2.3-34.9,2.3s17.7-12.8,26.4,11.4v432.7c0,3-0.6,5.9-1.9,8.5
	c-2.5,5.1-8,9.9-21.3,7.9L1118.3,664.8L1118.3,664.8z"/>
</svg>
