<?xml version="1.0" encoding="utf-8"?>
<!-- Generator: Adobe Illustrator 23.0.3, SVG Export Plug-In . SVG Version: 6.00 Build 0)  -->
<svg version="1.1" id="Layer_1" xmlns="http://www.w3.org/2000/svg" xmlns:xlink="http://www.w3.org/1999/xlink" x="0px" y="0px"
	 viewBox="0 0 1200 630" style="enable-background:new 0 0 1200 630;" xml:space="preserve">
<style type="text/css">
	.st0{fill:url(#SVGID_1_);}
	.st1{fill:#F5DE17;}
	.st2{clip-path:url(#SVGID_3_);}
	.st3{fill:#F8EA68;}
	.st4{fill:#04232F;}
	.st5{fill:#F07362;}
	.st6{fill:#F2BB2E;}
	.st7{fill:#27AE60;}
	.st8{fill:#5E7F8D;}
	.st9{font-family:'FiraCode-Regular';}
	.st10{font-size:22px;}
	.st11{fill:none;}
	.st12{fill:#BBC2C4;}
	.st13{font-size:20px;}
	.st14{font-family:'Gilroy-ExtraBold';}
	.st15{font-size:82.8733px;}
</style>
<linearGradient id="SVGID_1_" gradientUnits="userSpaceOnUse" x1="24.8984" y1="-55.8007" x2="1249.0027" y2="733.449">
	<stop  offset="6.483999e-04" style="stop-color:#F4DB04"/>
	<stop  offset="0.4813" style="stop-color:#F5DE17"/>
	<stop  offset="1" style="stop-color:#FAED80"/>
</linearGradient>
<rect x="0" class="st0" width="1200" height="630"/>
<rect x="1375.3" y="-198" class="st1" width="131.8" height="131.8"/>
<g>
	<defs>
		<rect id="SVGID_2_" x="0" width="1200" height="630"/>
	</defs>
	<clipPath id="SVGID_3_">
		<use xlink:href="#SVGID_2_"  style="overflow:visible;"/>
	</clipPath>
	<g class="st2">
		<path class="st3" d="M679.1,106.7H476.1c-7.9,0-14.3-6.4-14.3-14.3l0,0c0-7.9,6.4-14.3,14.3-14.3h203.1c7.9,0,14.3,6.4,14.3,14.3
			l0,0C693.5,100.2,687,106.7,679.1,106.7z"/>
		<path class="st3" d="M1193.1,106.7H990.1c-7.9,0-14.3-6.4-14.3-14.3l0,0c0-7.9,6.4-14.3,14.3-14.3h203.1c7.9,0,14.3,6.4,14.3,14.3
			l0,0C1207.5,100.2,1201.1,106.7,1193.1,106.7z"/>
		<path class="st3" d="M935.1,106.7h-73.5c-7.9,0-14.3-6.4-14.3-14.3l0,0c0-7.9,6.4-14.3,14.3-14.3h73.5c7.9,0,14.3,6.4,14.3,14.3
			l0,0C949.4,100.2,943,106.7,935.1,106.7z"/>
		<path class="st3" d="M620.6,159.4H467.3c-3.1,0-5.6-2.5-5.6-5.6v-17.5c0-3.1,2.5-5.6,5.6-5.6h153.3c3.1,0,5.6,2.5,5.6,5.6v17.5
			C626.2,156.9,623.7,159.4,620.6,159.4z"/>
		<path class="st3" d="M985.4,159.4H832.1c-3.1,0-5.6-2.5-5.6-5.6v-17.5c0-3.1,2.5-5.6,5.6-5.6h153.3c3.1,0,5.6,2.5,5.6,5.6v17.5
			C991,156.9,988.5,159.4,985.4,159.4z"/>
		<path class="st3" d="M1056.2,159.4h-42.3c-3.1,0-5.6-2.5-5.6-5.6v-17.5c0-3.1,2.5-5.6,5.6-5.6h42.3c3.1,0,5.6,2.5,5.6,5.6v17.5
			C1061.8,156.9,1059.3,159.4,1056.2,159.4z"/>
		<path class="st3" d="M802.2,159.4h-61.4c-3.1,0-5.6-2.5-5.6-5.6v-17.5c0-3.1,2.5-5.6,5.6-5.6h61.4c3.1,0,5.6,2.5,5.6,5.6v17.5
			C807.8,156.9,805.3,159.4,802.2,159.4z"/>
		<path class="st3" d="M703.1,212.2h-43.8c-7.9,0-14.3-6.4-14.3-14.3l0,0c0-7.9,6.4-14.3,14.3-14.3h43.8c7.9,0,14.3,6.4,14.3,14.3
			l0,0C717.4,205.8,711,212.2,703.1,212.2z"/>
		<path class="st3" d="M793.5,212.2h-43.8c-7.9,0-14.3-6.4-14.3-14.3l0,0c0-7.9,6.4-14.3,14.3-14.3h43.8c7.9,0,14.3,6.4,14.3,14.3
			l0,0C807.8,205.8,801.4,212.2,793.5,212.2z"/>
		<path class="st3" d="M1037.6,212.2h-13.8c-7.9,0-14.3-6.4-14.3-14.3l0,0c0-7.9,6.4-14.3,14.3-14.3h13.8c7.9,0,14.3,6.4,14.3,14.3
			l0,0C1051.9,205.8,1045.5,212.2,1037.6,212.2z"/>
		<path class="st3" d="M1098.6,212.2h-13.8c-7.9,0-14.3-6.4-14.3-14.3l0,0c0-7.9,6.4-14.3,14.3-14.3h13.8c7.9,0,14.3,6.4,14.3,14.3
			l0,0C1112.9,205.8,1106.5,212.2,1098.6,212.2z"/>
		<path class="st3" d="M1159.6,212.2h-13.8c-7.9,0-14.3-6.4-14.3-14.3l0,0c0-7.9,6.4-14.3,14.3-14.3h13.8c7.9,0,14.3,6.4,14.3,14.3
			l0,0C1173.9,205.8,1167.5,212.2,1159.6,212.2z"/>
		<path class="st3" d="M1220.5,212.2h-13.8c-7.9,0-14.3-6.4-14.3-14.3l0,0c0-7.9,6.4-14.3,14.3-14.3h13.8c7.9,0,14.3,6.4,14.3,14.3
			l0,0C1234.9,205.8,1228.5,212.2,1220.5,212.2z"/>
		<path class="st3" d="M771,265h-71.9c-7.9,0-14.3-6.4-14.3-14.3l0,0c0-7.9,6.4-14.3,14.3-14.3H771c7.9,0,14.3,6.4,14.3,14.3l0,0
			C785.4,258.6,778.9,265,771,265z"/>
		<path class="st3" d="M814.3,265h-4c-7.9,0-14.3-6.4-14.3-14.3l0,0c0-7.9,6.4-14.3,14.3-14.3h4c7.9,0,14.3,6.4,14.3,14.3l0,0
			C828.7,258.6,822.3,265,814.3,265z"/>
		<path class="st3" d="M603.7,265h-15.7c-7.9,0-14.3-6.4-14.3-14.3l0,0c0-7.9,6.4-14.3,14.3-14.3h15.7c7.9,0,14.3,6.4,14.3,14.3l0,0
			C618.1,258.6,611.7,265,603.7,265z"/>
		<path class="st3" d="M659,265h-15.7c-7.9,0-14.3-6.4-14.3-14.3l0,0c0-7.9,6.4-14.3,14.3-14.3H659c7.9,0,14.3,6.4,14.3,14.3l0,0
			C673.4,258.6,666.9,265,659,265z"/>
		<path class="st3" d="M1009.5,317.8h-16.9c-7.9,0-14.3-6.4-14.3-14.3l0,0c0-7.9,6.4-14.3,14.3-14.3h16.9c7.9,0,14.3,6.4,14.3,14.3
			l0,0C1023.9,311.4,1017.5,317.8,1009.5,317.8z"/>
		<path class="st3" d="M1076,317.8H1059c-7.9,0-14.3-6.4-14.3-14.3l0,0c0-7.9,6.4-14.3,14.3-14.3h16.9c7.9,0,14.3,6.4,14.3,14.3l0,0
			C1090.3,311.4,1083.9,317.8,1076,317.8z"/>
		<path class="st3" d="M750.9,317.8h-57.4c-7.9,0-14.3-6.4-14.3-14.3l0,0c0-7.9,6.4-14.3,14.3-14.3h57.4c7.9,0,14.3,6.4,14.3,14.3
			l0,0C765.2,311.4,758.8,317.8,750.9,317.8z"/>
		<path class="st3" d="M666.2,370.6H476.1c-7.9,0-14.3-6.4-14.3-14.3l0,0c0-7.9,6.4-14.3,14.3-14.3h190.2c7.9,0,14.3,6.4,14.3,14.3
			l0,0C680.6,364.1,674.2,370.6,666.2,370.6z"/>
		<path class="st3" d="M1151.6,370.6H961.5c-7.9,0-14.3-6.4-14.3-14.3l0,0c0-7.9,6.4-14.3,14.3-14.3h190.2c7.9,0,14.3,6.4,14.3,14.3
			l0,0C1166,364.1,1159.6,370.6,1151.6,370.6z"/>
		<path class="st3" d="M1245.9,370.6h-42.4c-7.9,0-14.3-6.4-14.3-14.3l0,0c0-7.9,6.4-14.3,14.3-14.3h42.4c7.9,0,14.3,6.4,14.3,14.3
			l0,0C1260.3,364.1,1253.8,370.6,1245.9,370.6z"/>
		<path class="st3" d="M866.1,423.3h-8.6c-7.9,0-14.3-6.4-14.3-14.3l0,0c0-7.9,6.4-14.3,14.3-14.3h8.6c7.9,0,14.3,6.4,14.3,14.3l0,0
			C880.5,416.9,874.1,423.3,866.1,423.3z"/>
		<path class="st3" d="M602,423.3h-21.9c-7.9,0-14.3-6.4-14.3-14.3l0,0c0-7.9,6.4-14.3,14.3-14.3H602c7.9,0,14.3,6.4,14.3,14.3l0,0
			C616.4,416.9,609.9,423.3,602,423.3z"/>
		<path class="st3" d="M688.9,423.3H667c-7.9,0-14.3-6.4-14.3-14.3l0,0c0-7.9,6.4-14.3,14.3-14.3h21.9c7.9,0,14.3,6.4,14.3,14.3l0,0
			C703.2,416.9,696.8,423.3,688.9,423.3z"/>
		<path class="st3" d="M589.8,476.1H467.3c-3.1,0-5.6-2.5-5.6-5.6V453c0-3.1,2.5-5.6,5.6-5.6h122.5c3.1,0,5.6,2.5,5.6,5.6v17.5
			C595.4,473.6,592.9,476.1,589.8,476.1z"/>
		<path class="st3" d="M886.3,476.1H763.7c-3.1,0-5.6-2.5-5.6-5.6V453c0-3.1,2.5-5.6,5.6-5.6h122.5c3.1,0,5.6,2.5,5.6,5.6v17.5
			C891.8,473.6,889.3,476.1,886.3,476.1z"/>
		<path class="st3" d="M943.8,476.1h-32.3c-3.1,0-5.6-2.5-5.6-5.6V453c0-3.1,2.5-5.6,5.6-5.6h32.3c3.1,0,5.6,2.5,5.6,5.6v17.5
			C949.4,473.6,946.9,476.1,943.8,476.1z"/>
		<path class="st3" d="M664,476.1h-47.8c-3.1,0-5.6-2.5-5.6-5.6V453c0-3.1,2.5-5.6,5.6-5.6H664c3.1,0,5.6,2.5,5.6,5.6v17.5
			C669.5,473.6,667,476.1,664,476.1z"/>
		<path class="st3" d="M737.4,476.1h-47.8c-3.1,0-5.6-2.5-5.6-5.6V453c0-3.1,2.5-5.6,5.6-5.6h47.8c3.1,0,5.6,2.5,5.6,5.6v17.5
			C743,473.6,740.5,476.1,737.4,476.1z"/>
		<path class="st3" d="M611.8,581.7H476.1c-7.9,0-14.3-6.4-14.3-14.3l0,0c0-7.9,6.4-14.3,14.3-14.3h135.8c7.9,0,14.3,6.4,14.3,14.3
			l0,0C626.2,575.2,619.8,581.7,611.8,581.7z"/>
		<path class="st3" d="M894.4,581.7h-5.1c-7.9,0-14.3-6.4-14.3-14.3l0,0c0-7.9,6.4-14.3,14.3-14.3h5.1c7.9,0,14.3,6.4,14.3,14.3l0,0
			C908.7,575.2,902.3,581.7,894.4,581.7z"/>
	</g>
	<g class="st2">
		<path class="st4" d="M1212.2,783.1h-415c-11,0-20-9-20-20v-515c0-11,9-20,20-20h415c11,0,20,9,20,20v515
			C1232.2,774.1,1223.2,783.1,1212.2,783.1z"/>
		<g>
			<circle class="st5" cx="809.1" cy="275.1" r="9"/>
			<circle class="st6" cx="839.1" cy="275.1" r="9"/>
			<circle class="st7" cx="869.1" cy="275.1" r="9"/>
		</g>
		<text transform="matrix(1 0 0 1 939.8199 281.1025)" class="st8 st9 st10">example.js</text>
		<rect x="805.8" y="321.1" class="st11" width="396.4" height="426.3"/>
		<text transform="matrix(1 0 0 1 805.8403 336.1182)"><tspan x="0" y="0" class="st12 st9 st13">const inventory = [</tspan><tspan x="0" y="26" class="st12 st9 st13">  {name: &apos;apples&apos;, quantity: 2},</tspan><tspan x="0" y="52" class="st12 st9 st13">  {name: &apos;bananas&apos;, quantity: 0},</tspan><tspan x="0" y="78" class="st12 st9 st13">  {name: &apos;cherries&apos;, quantity: 5}</tspan><tspan x="0" y="104" class="st12 st9 st13">];</tspan><tspan x="0" y="156" class="st12 st9 st13">const result = inventory.find( </tspan><tspan x="0" y="182" class="st12 st9 st13">fruit =&gt; fruit.name === &apos;cher</tspan><tspan x="342.2" y="182" class="st12 st9 st13">-</tspan><tspan x="0" y="208" class="st12 st9 st13">ries&apos; );</tspan><tspan x="0" y="260" class="st12 st9 st13">console.log(result)</tspan><tspan x="0" y="286" class="st12 st9 st13">// { name: &apos;cherries&apos;, quantity: </tspan><tspan x="0" y="312" class="st12 st9 st13">5 }</tspan></text>
	</g>
</g>
<text transform="matrix(1 0 0 1 87.7332 256.0983)"><tspan x="0" y="0" class="st14 st15">Search Element</tspan><tspan x="0" y="90" class="st14 st15">In Array</tspan><tspan x="0" y="180" class="st14 st15">Using JavaScript</tspan></text>
<path d="M1089.8,141.5c5.8,9.4,13.2,16.3,26.5,16.3c11.1,0,18.2-5.6,18.2-13.2c0-9.2-7.3-12.5-19.5-17.8l-6.7-2.9
	c-19.4-8.3-32.2-18.6-32.2-40.4c0-20.1,15.3-35.4,39.3-35.4c17.1,0,29.3,5.9,38.2,21.5l-20.9,13.4c-4.6-8.3-9.6-11.5-17.3-11.5
	c-7.9,0-12.8,5-12.8,11.5c0,8.1,5,11.3,16.5,16.3l6.7,2.9c22.8,9.8,35.7,19.7,35.7,42.2c0,24.2-19,37.4-44.5,37.4
	c-24.9,0-41-11.9-48.9-27.4L1089.8,141.5z M995,143.8c4.2,7.5,8.1,13.8,17.3,13.8c8.8,0,14.4-3.4,14.4-16.9V49.5h26.8v91.6
	c0,27.8-16.3,40.4-40.1,40.4c-21.5,0-33.9-11.1-40.3-24.5L995,143.8z"/>
<image style="overflow:visible;" width="1200" height="630" xlink:href="../../../../../Downloads/introducing-graphql-nexus-code-first-graphql-server-development.png"  transform="matrix(1 0 0 1 0 -677.2766)">
</image>
</svg>
